<svg width="500" height="500" version="1.1" xmlns="http://www.w3.org/2000/svg" desc="Created with imagetracer.js version 1.2.6" ><path fill="rgb(0,0,0)" stroke="rgb(0,0,0)" stroke-width="1" opacity="0" d="M 0 0 L 500 0 L 500 500 L 0 500 L 0 0 Z M 105 63 Q 104 66 108 65 L 107 67 L 108 69 L 108 179 L 111 181 Q 113 180 112 183 L 120 190 Q 119 192 122 191 L 124 194 L 127 196 L 135 205 Q 137 204 136 207 L 138 207 L 174 243 L 175 243 L 181 251 L 173 259 L 171 259 L 164 268 Q 161 267 162 270 L 160 270 L 160 272 L 158 272 L 158 274 L 154 276 L 153 279 Q 150 278 151 281 L 149 281 L 149 283 L 147 283 L 147 285 L 145 285 L 145 287 L 143 287 L 143 289 L 141 289 L 141 291 L 132 299 Q 133 301 131 300 L 119 312 L 119 313 L 118 313 L 108 323 L 109 437 L 118 428 L 118 426 L 120 426 L 145 401 Q 147 402 146 399 L 149 398 Q 148 395 151 396 L 158 388 Q 160 389 159 387 L 162 385 L 165 381 Q 167 382 166 379 L 168 379 L 168 377 L 170 377 L 170 375 L 172 375 L 181 366 Q 180 363 183 364 L 183 362 L 185 362 L 196 351 Q 195 348 198 349 L 198 347 L 200 347 L 222 325 L 222 323 L 234 314 L 234 313 L 244 303 L 247 301 L 249 297 L 253 295 Q 252 292 255 293 L 257 290 L 260 288 L 261 285 L 264 284 Q 263 281 266 282 L 268 279 Q 270 280 269 277 L 271 277 L 297 251 L 290 242 L 289 242 L 254 207 Q 251 208 252 205 L 250 205 L 250 204 L 241 194 Q 238 195 239 192 L 237 192 L 237 191 L 228 181 L 223 177 L 217 170 Q 214 171 215 168 L 207 162 Q 208 159 205 160 L 205 158 L 204 158 L 178 132 L 176 132 L 176 131 L 165 119 Q 162 120 163 118 L 157 112 L 155 110 L 152 108 L 148 102 Q 145 103 146 101 L 137 93 Q 138 90 135 91 L 135 89 L 133 89 L 133 87 L 131 87 L 131 85 L 130 85 L 109 65 L 109 63 L 105 63 Z M 134 64 L 137 69 Q 139 68 138 71 L 153 83 L 153 85 L 163 94 L 166 96 L 171 103 L 173 103 L 189 119 Q 188 121 191 120 L 195 125 Q 197 124 196 127 L 198 127 L 213 142 Q 215 141 214 144 L 216 144 L 216 146 L 218 146 L 218 148 L 220 148 L 220 150 L 227 156 Q 226 158 229 157 L 229 159 L 231 159 L 250 177 L 251 178 L 257 172 Q 259 173 258 170 L 260 170 L 264 165 Q 266 166 265 163 L 267 163 L 267 161 L 269 161 L 269 159 L 271 159 L 292 138 L 295 136 L 298 131 L 300 131 L 317 114 L 318 114 L 320 111 L 325 107 L 333 99 L 333 97 L 341 92 L 343 89 L 367 66 L 367 64 L 134 64 Z M 388 64 L 388 66 L 382 71 Q 383 73 380 72 L 380 74 L 379 74 L 372 82 L 369 84 Q 370 86 367 85 L 367 87 L 366 87 L 330 123 Q 327 122 328 125 L 319 134 L 317 134 L 315 138 Q 312 137 313 140 L 311 140 L 311 142 L 306 146 Q 307 148 304 147 L 304 149 L 302 149 L 302 151 L 300 151 L 300 153 L 291 161 Q 292 163 289 162 L 289 164 L 287 164 L 287 166 L 286 166 L 278 175 L 270 182 L 272 186 L 274 186 L 310 222 Q 312 221 311 224 L 313 224 L 313 226 L 327 239 L 328 239 L 331 243 Q 333 242 332 245 L 334 245 L 338 251 L 330 259 L 328 259 L 328 261 L 309 280 Q 306 279 307 282 L 304 283 L 302 287 Q 299 286 300 289 L 298 289 L 298 291 L 296 291 L 295 294 Q 292 293 293 296 L 291 296 L 291 298 L 289 298 L 289 300 L 287 300 L 287 302 L 285 302 L 285 304 L 283 304 L 283 306 L 278 310 Q 279 312 276 311 L 276 313 L 272 316 Q 273 318 270 317 L 271 321 L 274 322 L 281 330 Q 283 329 282 332 L 333 381 L 334 381 L 340 388 Q 342 387 341 390 L 343 390 L 343 392 L 345 392 L 345 394 L 347 394 L 355 403 Q 357 402 356 405 L 358 405 L 358 407 L 360 407 L 360 409 L 362 409 L 362 411 L 367 415 Q 366 417 369 416 L 369 418 L 373 421 Q 372 423 375 422 L 376 425 L 384 432 Q 383 434 386 433 L 390 437 L 390 65 L 388 64 Z M 249 323 L 244 328 Q 241 327 242 330 L 240 330 L 240 332 L 238 332 L 237 335 Q 234 334 235 337 L 233 337 L 233 339 L 231 339 L 231 341 L 230 341 L 215 356 Q 212 355 213 358 L 188 382 Q 185 381 186 384 L 184 384 L 184 386 L 182 386 L 181 389 Q 178 388 179 391 L 178 391 L 164 405 Q 161 404 162 407 L 157 411 Q 158 413 155 412 L 153 416 Q 150 415 151 418 L 134 432 L 132 436 L 133 437 L 366 437 L 366 436 L 351 420 L 348 418 L 343 412 L 342 412 L 327 397 Q 324 398 325 395 L 323 395 L 323 393 L 321 393 L 321 391 L 318 390 Q 319 387 316 388 L 316 386 L 314 386 L 314 384 L 313 384 L 273 345 L 266 339 L 263 335 L 260 334 Q 261 331 258 332 L 258 330 L 256 330 L 256 328 L 249 323 Z " /><path fill="rgb(36,98,225)" stroke="rgb(36,98,225)" stroke-width="1" opacity="0.9921568627450981" d="M 135.5 65 L 365 65.5 L 361.5 68 L 360.5 67 L 159.5 67 L 159.5 69 L 154.5 67 L 144 67 L 143.5 69 L 141 68 L 140.5 66 L 139 68.5 L 142.5 71 L 144 70.5 L 143 71.5 L 146.5 75 L 150 77.5 L 152.5 81 Q 154.8 80.3 154 82.5 L 158.5 87 L 160 86.5 Q 157.3 88.3 161.5 90 L 163 89.5 L 162.5 88 L 165 88.5 L 164 91.5 L 167 93 L 167.5 91 L 170 92.5 L 167 93 L 169.5 97 L 171.5 96 L 171 97.5 L 173.5 101 Q 175.8 100.3 175 102.5 L 179 105 L 181.5 109 L 184 110.5 L 186.5 114 L 188 114 L 188 116 Q 190.7 114.9 190 117.5 L 194.5 121 L 195.5 119 L 196 120.5 Q 193.5 122 197 123.5 Q 196.3 125.8 198.5 125 L 201 129 L 208 133.5 L 209.5 136 L 213 138.5 Q 212.3 140.8 214.5 140 L 216 143 L 226.5 151 L 228 150.5 L 227 152.5 L 230 154 Q 228.8 151 232.5 152 L 231.5 154 Q 228.9 153.3 230 156 L 235 157 Q 234 160.8 236.5 162 L 240 163.5 L 241.5 167 L 243.5 166 L 246 169.5 Q 243.2 171.2 247.5 173 Q 253.3 173.8 254 169.5 L 253.5 168 L 251 169.5 L 252 167 L 256.5 169 L 257 167 L 263 162.5 L 262 160.5 L 263.5 161 L 267 158.5 L 266.5 157 L 272 154.5 L 273.5 152 L 276 150.5 L 274.5 148 L 277.5 149 L 275.5 145 L 279.5 147 L 279.5 145 L 284 142.5 Q 282.8 138.8 286.5 140 L 288 137 L 292 135.5 L 291 133 L 289 132.5 L 292 130.5 L 291 132.5 Q 292.3 135.3 293.5 133 L 296 131.5 L 295.5 130 L 299 129 L 301 125.5 L 300.5 124 L 302.5 124 L 304 123.5 L 303.5 122 L 309 118.5 Q 308.3 116.3 310.5 117 L 313 114.5 L 311.5 112 Q 315.9 113.5 315 110.5 L 318 109 Q 316.8 106 320.5 107 L 324 105 L 325 101.5 L 323.5 102 Q 321.3 101.3 322 103.5 L 321 103.5 L 323 100.5 L 322.5 99 L 326.5 97 L 326 98.5 L 325 100.5 L 327.5 101 L 329 98 L 332 96.5 L 331 93 Q 333.7 94.1 333 91.5 L 334 91.5 L 334.5 93 L 335.5 91 Q 337.3 93.7 339 89.5 L 338 86 Q 340.7 84.9 340 87.5 L 341 87.5 L 342.5 85 L 351 79 Q 349.9 76.3 352.5 77 L 355 73 L 360.5 69 L 346.5 84 L 343.5 86 L 290.5 138 L 289 138 Q 290.1 140.7 287.5 140 L 264.5 163 L 263 163 L 261.5 166 L 258.5 168 L 249.5 176 L 226.5 153 L 225 153 L 223.5 150 L 220.5 148 L 200 128.5 Q 200.8 126.3 198.5 127 L 196 123 L 194.5 123 L 168 97.5 Q 168.8 95.3 166.5 96 L 165 93 L 163.5 93 L 138 68.5 Q 138.8 66.3 136.5 67 L 135.5 65 Z " /><path fill="rgb(36,98,225)" stroke="rgb(36,98,225)" stroke-width="1" opacity="0.9921568627450981" d="M 389.5 65 L 390 434.5 L 386.5 432 L 385 431.5 L 388 431 L 388.5 433 L 389 429.5 L 389 427.5 L 388 424.5 L 389 423.5 L 389 80.5 L 388 78.5 L 389 75.5 Q 385 73.5 389 71.5 L 388.5 68 L 387.5 71 L 386.5 70 L 382.5 74 L 379.5 76 L 377.5 79 L 380 80.5 L 378.5 81 L 376.5 80 L 375 82.5 L 375.5 84 L 373.5 84 L 372 84 L 372 88 L 370.5 88 L 368 87 L 366.5 90 L 362 93.5 L 360.5 96 L 358 97.5 L 360 100.5 L 358.5 100 Q 354.8 98.8 356 102.5 L 354 103.5 L 353.5 102 L 352 105 L 350 105.5 L 350.5 107 L 347 108 Q 348.1 110.7 345.5 110 L 342 114.5 L 345 115.5 L 341.5 118 L 341.5 116 Q 339.3 115.3 340 117.5 L 339.5 120 L 337.5 118 L 330 124.5 L 385.5 69 L 387 69 L 389.5 65 Z " /><path fill="rgb(36,98,225)" stroke="rgb(36,98,225)" stroke-width="1" opacity="0.9921568627450981" d="M 108.5 66 L 121.5 79 L 123 79 L 128.5 86 L 130 86 L 130 88 Q 132.7 86.9 132 89.5 L 138 94 Q 136.9 96.7 139.5 96 L 141 99 L 142.5 99 L 211 166.5 L 209.5 167 L 202 161.5 Q 203.3 157.8 199.5 159 Q 201.3 156.5 196.5 154 Q 194.3 154.8 195 152.5 L 187 145.5 Q 187.8 143.3 185.5 144 L 182.5 140 L 178.5 140 L 177 139.5 L 180 137.5 L 176 134.5 L 174.5 132 L 172 132.5 L 173 137.5 L 166 131.5 L 168.5 130 L 169.5 133 L 172 129.5 L 166.5 126 Q 165.3 128.3 164 125.5 L 163.5 122 L 162.5 124 L 162 122.5 L 163 121.5 L 160 118.5 L 158.5 116 Q 156.8 118.8 155 114.5 L 155.5 113 L 151.5 110 L 149 111.5 Q 152.5 110 150 108.5 L 148.5 106 L 145 108.5 L 143.5 106 Q 139.8 106.8 139 104.5 L 141.5 103 L 145 105.5 Q 144.3 107.8 146.5 107 L 146.5 104 L 144 102.5 L 142.5 100 Q 139.2 101.1 140 98.5 L 135 95 L 132.5 91 L 131.5 93 L 131 91.5 Q 133.3 90.3 130.5 89 L 127 86.5 L 124.5 83 L 121.5 81 L 119 77 Q 116.3 78.1 117 75.5 L 115 75.5 Q 116.1 72.2 113.5 73 L 111.5 70 L 109 72.5 L 109 74.5 Q 108.3 78.3 110.5 79 L 114.5 77 L 114 78.5 L 114 80 L 110 80.5 L 110 143.5 Q 113.8 145.3 110.5 147 L 109 147.5 L 109 170.5 L 110 172.5 L 109 174.5 L 111 174.5 L 110 176.5 L 113.5 181 L 114.5 179 L 116 181.5 L 115.5 183 Q 120.5 182.5 121 186.5 Q 118.8 187.8 121.5 189 L 123.5 188 Q 126.2 189.3 124 190.5 L 124 192 L 126 192 Q 124.9 194.7 127.5 194 L 131 196.5 L 130 194.5 L 132 195.5 Q 131.3 201.3 135.5 202 L 136.5 200 L 137 202 Q 139.7 200.9 139 203.5 L 140.5 206 L 142.5 205 L 141 207.5 L 143.5 210 L 148 211.5 L 148 213.5 L 150 216.5 L 156.5 221 L 158.5 217 L 160 218.5 L 156 222.5 L 159.5 226 L 161 225.5 L 160.5 227 L 163.5 226 L 164.5 228 L 163 227.5 Q 162.3 229.8 164.5 229 L 165.5 232 L 169 233.5 Q 166.8 234.8 169.5 236 L 171.5 236 L 175.5 232 L 172 238.5 L 176.5 243 L 178 242.5 L 178 245 L 180 245 Q 178.9 247.7 181.5 247 L 184.5 245 L 185.5 247 Q 181.3 245.7 183 250.5 L 182 250.5 L 139.5 207 Q 137.3 207.8 138 205.5 L 131 200 L 128.5 196 L 109 177.5 L 108 175.5 L 108.5 66 Z M 109 69 L 109 71 L 111 70 L 109 69 Z " /><path fill="rgb(36,98,225)" stroke="rgb(36,98,225)" stroke-width="1" opacity="0.9921568627450981" d="M 352.5 69 L 354 72 Q 350.5 73.1 352.5 69 Z " /><path fill="rgb(36,98,225)" stroke="rgb(36,98,225)" stroke-width="1" opacity="0.9921568627450981" d="M 149.5 70 L 153 70.5 L 150.5 72 L 149.5 70 Z " /><path fill="rgb(36,98,225)" stroke="rgb(36,98,225)" stroke-width="1" opacity="0.9921568627450981" d="M 155.5 75 L 159 76.5 L 154.5 78 L 153.5 76 L 155.5 75 Z " /><path fill="rgb(36,98,225)" stroke="rgb(36,98,225)" stroke-width="1" opacity="0.9921568627450981" d="M 157.5 80 L 160 80.5 Q 160.8 82.8 158.5 82 L 157.5 80 Z " /><path fill="rgb(36,98,225)" stroke="rgb(36,98,225)" stroke-width="1" opacity="0.9921568627450981" d="M 336.5 80 L 337.5 82 L 336.5 80 Z " /><path fill="rgb(36,98,225)" stroke="rgb(36,98,225)" stroke-width="1" opacity="0.9921568627450981" d="M 172.5 83 L 173 84.5 L 170.5 88 L 169 86.5 L 172.5 83 Z " /><path fill="rgb(36,98,225)" stroke="rgb(36,98,225)" stroke-width="1" opacity="0.9921568627450981" d="M 380.5 85 L 382 85.5 L 378 88 Q 376.9 85.3 379.5 86 L 380.5 85 Z " /><path fill="rgb(36,98,225)" stroke="rgb(36,98,225)" stroke-width="1" opacity="0.9921568627450981" d="M 120.5 87 L 122.5 88 Q 124.3 85.2 126 89.5 L 122.5 90 L 120.5 87 Z " /><path fill="rgb(36,98,225)" stroke="rgb(36,98,225)" stroke-width="1" opacity="0.9921568627450981" d="M 174 89 L 176 89.5 L 174 90.5 L 174 89 Z " /><path fill="rgb(36,98,225)" stroke="rgb(36,98,225)" stroke-width="1" opacity="0.9921568627450981" d="M 334.5 89 L 337 89.5 L 334.5 90 L 334.5 89 Z " /><path fill="rgb(36,98,225)" stroke="rgb(36,98,225)" stroke-width="1" opacity="0.9921568627450981" d="M 374 90 Q 376.7 88.9 376 91.5 L 373 93.5 L 374 90 Z " /><path fill="rgb(36,98,225)" stroke="rgb(36,98,225)" stroke-width="1" opacity="0.9921568627450981" d="M 115.5 94 Q 119.3 93 118 96 L 115.5 94 Z " /><path fill="rgb(36,98,225)" stroke="rgb(36,98,225)" stroke-width="1" opacity="0.9921568627450981" d="M 123 94 Q 126 93 125 96 Q 122 97 123 94 Z " /><path fill="rgb(36,98,225)" stroke="rgb(36,98,225)" stroke-width="1" opacity="0.9921568627450981" d="M 128.5 94 L 129.5 96 L 128.5 94 Z " /><path fill="rgb(36,98,225)" stroke="rgb(36,98,225)" stroke-width="1" opacity="0.9921568627450981" d="M 366.5 94 L 367.5 96 L 366.5 94 Z " /><path fill="rgb(36,98,225)" stroke="rgb(36,98,225)" stroke-width="1" opacity="0.9921568627450981" d="M 382 94 Q 385 93 384 96 Q 381 97 382 94 Z " /><path fill="rgb(36,98,225)" stroke="rgb(36,98,225)" stroke-width="1" opacity="0.9921568627450981" d="M 188 96 L 190 96.5 L 188 97.5 L 188 96 Z " /><path fill="rgb(36,98,225)" stroke="rgb(36,98,225)" stroke-width="1" opacity="0.9921568627450981" d="M 362 96 Q 365 95 364 98 Q 361 99 362 96 Z " /><path fill="rgb(36,98,225)" stroke="rgb(36,98,225)" stroke-width="1" opacity="0.9921568627450981" d="M 178 100 Q 181 98.8 180 102.5 L 178 101.5 L 178 100 Z " /><path fill="rgb(36,98,225)" stroke="rgb(36,98,225)" stroke-width="1" opacity="0.9921568627450981" d="M 184.5 100 L 187 101.5 L 185.5 102 L 184.5 100 Z " /><path fill="rgb(36,98,225)" stroke="rgb(36,98,225)" stroke-width="1" opacity="0.9921568627450981" d="M 132.5 106 L 134 109.5 L 131 111.5 L 132.5 106 Z " /><path fill="rgb(36,98,225)" stroke="rgb(36,98,225)" stroke-width="1" opacity="0.9921568627450981" d="M 352 106 Q 355 105 354 108 L 351.5 109 L 352 107.5 L 352 106 Z " /><path fill="rgb(36,98,225)" stroke="rgb(36,98,225)" stroke-width="1" opacity="0.9921568627450981" d="M 184.5 108 L 187 108.5 L 184.5 109 L 184.5 108 Z " /><path fill="rgb(36,98,225)" stroke="rgb(36,98,225)" stroke-width="1" opacity="0.9921568627450981" d="M 349.5 110 L 349 111.5 Q 350.1 115.7 346 114 Q 344.9 111.3 347.5 112 L 349.5 110 Z " /><path fill="rgb(36,98,225)" stroke="rgb(36,98,225)" stroke-width="1" opacity="0.9921568627450981" d="M 191.5 112 L 191 113.5 L 190.5 115 L 190 113.5 L 191.5 112 Z " /><path fill="rgb(36,98,225)" stroke="rgb(36,98,225)" stroke-width="1" opacity="0.9921568627450981" d="M 200 114 Q 203 113 202 116 Q 199 117 200 114 Z " /><path fill="rgb(36,98,225)" stroke="rgb(36,98,225)" stroke-width="1" opacity="0.9921568627450981" d="M 289.5 115 Q 292.5 116.5 289.5 118 Q 287.3 118.8 288 116.5 L 289.5 115 Z " /><path fill="rgb(36,98,225)" stroke="rgb(36,98,225)" stroke-width="1" opacity="0.9921568627450981" d="M 299.5 118 L 300 120.5 L 298 119.5 L 299.5 118 Z " /><path fill="rgb(36,98,225)" stroke="rgb(36,98,225)" stroke-width="1" opacity="0.9921568627450981" d="M 199 120 Q 203.1 118.7 202 122 L 199.5 123 L 199 120 Z " /><path fill="rgb(36,98,225)" stroke="rgb(36,98,225)" stroke-width="1" opacity="0.9921568627450981" d="M 146 122 Q 152 120 150 126 L 146 124.5 L 146 122 Z " /><path fill="rgb(36,98,225)" stroke="rgb(36,98,225)" stroke-width="1" opacity="0.9921568627450981" d="M 337.5 122 L 338 123.5 L 334 126.5 L 337.5 122 Z " /><path fill="rgb(36,98,225)" stroke="rgb(36,98,225)" stroke-width="1" opacity="0.9921568627450981" d="M 291 123 L 295 123.5 L 294 126 Q 289.5 127.5 291 123 Z " /><path fill="rgb(36,98,225)" stroke="rgb(36,98,225)" stroke-width="1" opacity="0.9921568627450981" d="M 203 126 Q 205.7 124.9 205 127.5 L 207.5 131 L 203 128 L 203 126 Z " /><path fill="rgb(36,98,225)" stroke="rgb(36,98,225)" stroke-width="1" opacity="0.9921568627450981" d="M 328.5 126 L 326 129.5 L 322.5 135 L 321.5 134 L 318.5 137 L 317 136.5 L 326 128.5 Q 325.3 126.3 327.5 127 L 328.5 126 Z " /><path fill="rgb(36,98,225)" stroke="rgb(36,98,225)" stroke-width="1" opacity="0.9921568627450981" d="M 345.5 126 Q 348.1 125.3 347 128 L 344 127.5 L 345.5 126 Z " /><path fill="rgb(36,98,225)" stroke="rgb(36,98,225)" stroke-width="1" opacity="0.9921568627450981" d="M 212 128 Q 216.1 126.7 215 130 Q 210.9 131.3 212 128 Z " /><path fill="rgb(36,98,225)" stroke="rgb(36,98,225)" stroke-width="1" opacity="0.9921568627450981" d="M 330 130 L 333 131.5 L 331.5 134 L 330 130 Z " /><path fill="rgb(36,98,225)" stroke="rgb(36,98,225)" stroke-width="1" opacity="0.9921568627450981" d="M 274 131 L 278 132.5 L 275.5 134 L 274 131 Z " /><path fill="rgb(36,98,225)" stroke="rgb(36,98,225)" stroke-width="1" opacity="0.9921568627450981" d="M 283.5 134 Q 286.1 133.2 285 136.5 L 280.5 140 L 280 138 L 283 136.5 Q 280.8 135.2 283.5 134 Z " /><path fill="rgb(36,98,225)" stroke="rgb(36,98,225)" stroke-width="1" opacity="0.9921568627450981" d="M 215.5 135 Q 217.8 134.3 217 136.5 L 215.5 135 Z " /><path fill="rgb(36,98,225)" stroke="rgb(36,98,225)" stroke-width="1" opacity="0.9921568627450981" d="M 163.5 137 L 166 138 L 167 140.5 L 163 141 L 163.5 137 Z " /><path fill="rgb(36,98,225)" stroke="rgb(36,98,225)" stroke-width="1" opacity="0.9921568627450981" d="M 222 138 Q 225 137 224 140 Q 221 141 222 138 Z " /><path fill="rgb(36,98,225)" stroke="rgb(36,98,225)" stroke-width="1" opacity="0.9921568627450981" d="M 315.5 138 L 317 138.5 L 315 139 L 310.5 145 L 309 145.5 L 309.5 147 L 306.5 149 L 305 152 L 303 152.5 Q 305.7 154.2 301.5 156 L 299.5 155 Q 301.3 157.5 296.5 160 L 294 161.5 L 294.5 163 Q 293.3 160.8 292 163.5 L 289.5 167 Q 287.3 166.3 288 168.5 L 281 173.5 L 282.5 177 Q 285.1 176.2 284 179.5 L 281 177.5 Q 281.8 175.3 279.5 176 L 276 178.5 Q 276.8 182.3 274.5 183 L 274.5 181 Q 272.3 180.3 273 182.5 L 272 182.5 L 302.5 151 Q 304.8 151.8 304 149.5 L 308 147 L 309.5 144 Q 311.8 144.8 311 142.5 L 314 141 L 315.5 138 Z " /><path fill="rgb(36,98,225)" stroke="rgb(36,98,225)" stroke-width="1" opacity="0.9921568627450981" d="M 334.5 138 Q 337.5 137.2 336 141 L 333 139.5 L 334.5 138 Z " /><path fill="rgb(36,98,225)" stroke="rgb(36,98,225)" stroke-width="1" opacity="0.9921568627450981" d="M 272 139 Q 275.3 137.9 274 142 Q 270.7 143.1 272 139 Z " /><path fill="rgb(36,98,225)" stroke="rgb(36,98,225)" stroke-width="1" opacity="0.9921568627450981" d="M 319.5 141 L 320 142.5 L 318.5 144 L 316 143.5 L 319 142.5 L 319.5 141 Z " /><path fill="rgb(36,98,225)" stroke="rgb(36,98,225)" stroke-width="1" opacity="0.9921568627450981" d="M 179.5 142 L 180.5 144 L 178 143.5 L 179.5 142 Z " /><path fill="rgb(36,98,225)" stroke="rgb(36,98,225)" stroke-width="1" opacity="0.9921568627450981" d="M 236.5 147 L 237 148.5 L 234.5 150 L 236.5 147 Z " /><path fill="rgb(36,98,225)" stroke="rgb(36,98,225)" stroke-width="1" opacity="0.9921568627450981" d="M 313 147 Q 317.1 145.7 316 149 Q 311.9 150.3 313 147 Z " /><path fill="rgb(36,98,225)" stroke="rgb(36,98,225)" stroke-width="1" opacity="0.9921568627450981" d="M 183 148 L 185.5 149 L 187 148.5 L 188.5 152 Q 189.8 149.8 191 152.5 Q 189.8 155.3 188.5 153 Q 183.5 153.5 183 149.5 L 183 148 Z " /><path fill="rgb(36,98,225)" stroke="rgb(36,98,225)" stroke-width="1" opacity="0.9921568627450981" d="M 268.5 150 Q 273.3 148.7 272 152 L 267.5 154 L 265 152.5 L 268.5 150 Z " /><path fill="rgb(36,98,225)" stroke="rgb(36,98,225)" stroke-width="1" opacity="0.9921568627450981" d="M 307 153 Q 310.3 151.9 309 156 Q 305.7 157.1 307 153 Z " /><path fill="rgb(36,98,225)" stroke="rgb(36,98,225)" stroke-width="1" opacity="0.9921568627450981" d="M 316.5 155 L 319 155.5 L 318 158 L 315.5 159 L 315 156.5 L 316.5 155 Z " /><path fill="rgb(36,98,225)" stroke="rgb(36,98,225)" stroke-width="1" opacity="0.9921568627450981" d="M 187 158 Q 191.1 156.7 190 160 Q 185.9 161.3 187 158 Z " /><path fill="rgb(36,98,225)" stroke="rgb(36,98,225)" stroke-width="1" opacity="0.9921568627450981" d="M 256 160 L 259 160.5 L 258.5 163 L 256 162 L 256 160 Z " /><path fill="rgb(36,98,225)" stroke="rgb(36,98,225)" stroke-width="1" opacity="0.9921568627450981" d="M 196.5 162 L 198 165 Q 194.3 166.5 195 163.5 L 196.5 162 Z " /><path fill="rgb(36,98,225)" stroke="rgb(36,98,225)" stroke-width="1" opacity="0.9921568627450981" d="M 247.5 163 Q 251.3 162 250 165 L 247.5 163 Z " /><path fill="rgb(36,98,225)" stroke="rgb(36,98,225)" stroke-width="1" opacity="0.9921568627450981" d="M 297 163 Q 301.1 161.7 300 165 Q 295.9 166.3 297 163 Z " /><path fill="rgb(36,98,225)" stroke="rgb(36,98,225)" stroke-width="1" opacity="0.9921568627450981" d="M 211.5 168 L 214 169.5 Q 213.3 171.8 215.5 171 L 218.5 175 L 222 177.5 Q 221.3 179.8 223.5 179 L 287.5 243 L 289 243 L 295 250.5 L 261.5 284 L 260 284 L 253.5 292 L 251 293.5 L 245.5 300 L 242 302.5 Q 242.8 304.8 240.5 304 L 236.5 308 L 235 306.5 L 236.5 304 L 238.5 304 L 241 302.5 L 240 299.5 L 242.5 299 L 247 296.5 L 249 293.5 L 252 292 L 253.5 289 Q 254.8 291.3 256 288.5 Q 255.3 286.3 257.5 287 L 258.5 285 L 257 284.5 L 264 281 L 266 275 Q 268.7 276.1 268 273.5 L 271.5 272 Q 273.8 272.8 273 270.5 L 276.5 266 L 279 264.5 Q 278.3 262.3 280.5 263 L 283 262 L 284.5 258 L 287 258 Q 285.9 255.3 288.5 256 Q 292.2 254 290.5 252 Q 293.8 253.1 293 250.5 L 290.5 247 Q 288.3 247.8 289 245.5 L 287.5 246 L 282 240.5 L 281.5 238 L 280 238.5 L 281 237.5 L 277.5 234 L 276 234.5 L 277 233.5 L 271.5 228 L 269.5 228 L 266.5 226 L 267 224.5 L 266.5 223 L 265 223.5 Q 267.8 221.8 263.5 220 L 262 220.5 L 262.5 219 L 258 217.5 L 259 215 Q 256 216 257 213 L 254.5 213 L 251 208 L 248.5 207 L 247 207.5 Q 251.3 205.3 246.5 203 L 244.5 204 L 242.5 199 Q 241.3 201.3 240 198.5 L 231 187 L 229 187 Q 230.1 184.3 227.5 185 L 221.5 179 L 220 179.5 L 218.5 176 L 216.5 175 L 215 175.5 L 216 173.5 L 211.5 168 Z " /><path fill="rgb(36,98,225)" stroke="rgb(36,98,225)" stroke-width="1" opacity="0.9921568627450981" d="M 291 169 Q 294.3 167.9 293 172 Q 289.7 173.1 291 169 Z " /><path fill="rgb(36,98,225)" stroke="rgb(36,98,225)" stroke-width="1" opacity="0.9921568627450981" d="M 192 170 L 195 171.5 Q 193.5 174.5 192 171.5 L 192 170 Z " /><path fill="rgb(36,98,225)" stroke="rgb(36,98,225)" stroke-width="1" opacity="0.9921568627450981" d="M 300.5 171 L 303 171.5 L 302 174 L 299.5 175 L 299 172.5 L 300.5 171 Z " /><path fill="rgb(36,98,225)" stroke="rgb(36,98,225)" stroke-width="1" opacity="0.9921568627450981" d="M 286.5 173 L 287 175 L 285 174.5 L 286.5 173 Z " /><path fill="rgb(36,98,225)" stroke="rgb(36,98,225)" stroke-width="1" opacity="0.9921568627450981" d="M 115.5 176 L 114.5 178 L 115.5 176 Z " /><path fill="rgb(36,98,225)" stroke="rgb(36,98,225)" stroke-width="1" opacity="0.9921568627450981" d="M 117.5 177 L 116.5 179 L 117.5 177 Z " /><path fill="rgb(36,98,225)" stroke="rgb(36,98,225)" stroke-width="1" opacity="0.9921568627450981" d="M 118.5 179 L 124 182.5 Q 124.7 185.1 122 184 Q 123.1 181.3 120.5 182 L 118.5 179 Z " /><path fill="rgb(36,98,225)" stroke="rgb(36,98,225)" stroke-width="1" opacity="0.9921568627450981" d="M 216.5 180 L 218 183 L 220 183.5 L 218.5 184 L 216.5 180 Z " /><path fill="rgb(36,98,225)" stroke="rgb(36,98,225)" stroke-width="1" opacity="0.9921568627450981" d="M 273.5 184 L 284 192.5 L 284.5 194 L 286 193.5 L 285.5 195 Q 287.8 194.3 287 196.5 L 290 198.5 Q 289.3 195.9 292 197 L 291 200.5 L 294 202 Q 293 199 296 200 Q 297.1 202.7 294.5 202 L 295 203.5 L 295.5 205 L 299 204 Q 300.1 206.7 297.5 206 L 299.5 209 L 301.5 210 L 303 209.5 L 303 211.5 L 305.5 215 L 307.5 212 L 309 214.5 L 307 216.5 L 308.5 219 L 281.5 192 L 280 192 L 274.5 185 L 273.5 184 Z " /><path fill="rgb(36,98,225)" stroke="rgb(36,98,225)" stroke-width="1" opacity="0.9921568627450981" d="M 210 186 L 214 187.5 Q 215.3 191.3 211.5 190 L 210 186 Z " /><path fill="rgb(36,98,225)" stroke="rgb(36,98,225)" stroke-width="1" opacity="0.9921568627450981" d="M 225.5 187 L 227.5 190 Q 225.8 186.9 224 188.5 L 225.5 187 Z " /><path fill="rgb(36,98,225)" stroke="rgb(36,98,225)" stroke-width="1" opacity="0.9921568627450981" d="M 284.5 188 Q 286.8 187.3 286 189.5 Q 284.5 192.5 283 189.5 L 284.5 188 Z " /><path fill="rgb(36,98,225)" stroke="rgb(36,98,225)" stroke-width="1" opacity="0.9921568627450981" d="M 225.5 190 L 226.5 192 L 225.5 190 Z " /><path fill="rgb(36,98,225)" stroke="rgb(36,98,225)" stroke-width="1" opacity="0.9921568627450981" d="M 131.5 192 L 132.5 194 L 131.5 192 Z " /><path fill="rgb(36,98,225)" stroke="rgb(36,98,225)" stroke-width="1" opacity="0.9921568627450981" d="M 224 195 Q 227.3 193.9 226 198 Q 222.7 199.1 224 195 Z " /><path fill="rgb(36,98,225)" stroke="rgb(36,98,225)" stroke-width="1" opacity="0.9921568627450981" d="M 140 196 Q 143 195 142 198 Q 139 199 140 196 Z " /><path fill="rgb(36,98,225)" stroke="rgb(36,98,225)" stroke-width="1" opacity="0.9921568627450981" d="M 232.5 196 L 235 199.5 L 232 199.5 L 232 197.5 L 232.5 196 Z " /><path fill="rgb(36,98,225)" stroke="rgb(36,98,225)" stroke-width="1" opacity="0.9921568627450981" d="M 298 196 Q 301 195 300 198 Q 297 199 298 196 Z " /><path fill="rgb(36,98,225)" stroke="rgb(36,98,225)" stroke-width="1" opacity="0.9921568627450981" d="M 227.5 202 Q 232 204 228.5 206 L 226 204.5 L 227.5 202 Z " /><path fill="rgb(36,98,225)" stroke="rgb(36,98,225)" stroke-width="1" opacity="0.9921568627450981" d="M 302.5 202 Q 304.8 201.3 304 203.5 L 302.5 202 Z " /><path fill="rgb(36,98,225)" stroke="rgb(36,98,225)" stroke-width="1" opacity="0.9921568627450981" d="M 240.5 205 L 241.5 207 L 240.5 205 Z " /><path fill="rgb(36,98,225)" stroke="rgb(36,98,225)" stroke-width="1" opacity="0.9921568627450981" d="M 234 206 Q 238.1 204.7 237 208 Q 232.9 209.3 234 206 Z " /><path fill="rgb(36,98,225)" stroke="rgb(36,98,225)" stroke-width="1" opacity="0.9921568627450981" d="M 154.5 210 Q 158 212 153.5 214 L 151 212.5 L 154.5 210 Z " /><path fill="rgb(36,98,225)" stroke="rgb(36,98,225)" stroke-width="1" opacity="0.9921568627450981" d="M 245.5 212 L 246.5 214 Q 243.7 214.7 245.5 212 Z " /><path fill="rgb(36,98,225)" stroke="rgb(36,98,225)" stroke-width="1" opacity="0.9921568627450981" d="M 310.5 216 L 311.5 218 L 310.5 216 Z " /><path fill="rgb(36,98,225)" stroke="rgb(36,98,225)" stroke-width="1" opacity="0.9921568627450981" d="M 253 218 Q 257.1 216.7 256 220 Q 251.9 221.3 253 218 Z " /><path fill="rgb(36,98,225)" stroke="rgb(36,98,225)" stroke-width="1" opacity="0.9921568627450981" d="M 313.5 219 L 316 220.5 L 313 222.5 L 317 225 L 317.5 227 L 319 226.5 L 318.5 228 L 321 229.5 L 321.5 231 L 324 230 L 326.5 236 L 328.5 237 L 331.5 236 L 333 238.5 L 331.5 238 L 330 238.5 L 331 241 L 333 241 Q 331.9 243.7 334.5 243 L 336 246 L 340 248.5 L 339.5 250 L 310.5 220 Q 312 222.5 313.5 219 Z " /><path fill="rgb(36,98,225)" stroke="rgb(36,98,225)" stroke-width="1" opacity="0.9921568627450981" d="M 323.5 224 L 326 224.5 L 323.5 225 L 323.5 224 Z " /><path fill="rgb(36,98,225)" stroke="rgb(36,98,225)" stroke-width="1" opacity="0.9921568627450981" d="M 170 226 L 174 228.5 Q 174.7 231.1 172 230 L 170 226 Z " /><path fill="rgb(36,98,225)" stroke="rgb(36,98,225)" stroke-width="1" opacity="0.9921568627450981" d="M 328 228 Q 332.1 226.7 331 230 Q 326.9 231.3 328 228 Z " /><path fill="rgb(36,98,225)" stroke="rgb(36,98,225)" stroke-width="1" opacity="0.9921568627450981" d="M 325.5 231 L 328 232.5 L 326.5 233 L 325.5 231 Z " /><path fill="rgb(36,98,225)" stroke="rgb(36,98,225)" stroke-width="1" opacity="0.9921568627450981" d="M 335.5 233 L 336 234.5 L 334 235.5 L 335.5 233 Z " /><path fill="rgb(36,98,225)" stroke="rgb(36,98,225)" stroke-width="1" opacity="0.9921568627450981" d="M 273 238 L 275 238.5 L 273 239.5 L 273 238 Z " /><path fill="rgb(36,98,225)" stroke="rgb(36,98,225)" stroke-width="1" opacity="0.9921568627450981" d="M 334.5 240 L 335.5 242 L 334.5 240 Z " /><path fill="rgb(36,98,225)" stroke="rgb(36,98,225)" stroke-width="1" opacity="0.9921568627450981" d="M 341 240 L 344 240.5 L 341 242 L 341 240 Z " /><path fill="rgb(36,98,225)" stroke="rgb(36,98,225)" stroke-width="1" opacity="0.9921568627450981" d="M 347 240 Q 351.1 238.7 350 242 Q 345.9 243.3 347 240 Z " /><path fill="rgb(36,98,225)" stroke="rgb(36,98,225)" stroke-width="1" opacity="0.9921568627450981" d="M 190 249 Q 193.3 247.9 192 252 Q 188.7 253.1 190 249 Z " /><path fill="rgb(36,98,225)" stroke="rgb(36,98,225)" stroke-width="1" opacity="0.9921568627450981" d="M 343.5 249 L 346 252.5 L 343.5 254 L 342 252.5 L 343.5 249 Z " /><path fill="rgb(36,98,225)" stroke="rgb(36,98,225)" stroke-width="1" opacity="0.9921568627450981" d="M 339.5 251 L 339 252.5 L 338 254.5 L 338.5 256 L 336.5 256 L 334 257.5 Q 336.8 259.3 332.5 261 L 329 262.5 L 329.5 264 Q 328.3 261.8 327 264.5 L 327.5 268 Q 325.8 265.3 324 269.5 Q 324.8 271.8 322.5 271 L 320.5 271 L 318 273.5 L 317 276.5 L 317.5 278 Q 316 275.5 314.5 279 L 312 278.5 L 314 278 L 314 276.5 L 339.5 251 Z " /><path fill="rgb(36,98,225)" stroke="rgb(36,98,225)" stroke-width="1" opacity="0.9921568627450981" d="M 181.5 252 L 183 252.5 L 180 254.5 L 178.5 257 Q 176.3 256.3 177 258.5 Q 172.9 259.9 172.5 265 L 171.5 263 L 171 265 L 169 265 Q 170.1 267.7 167.5 267 L 167.5 269 L 163 271.5 Q 163.8 273.8 161.5 273 L 158 278 L 153 281.5 L 155 282.5 L 152.5 284 L 150.5 284 L 148 285.5 Q 149.1 288.8 146.5 288 L 143.5 293 Q 141.7 290.3 140 294.5 L 140 296.5 L 138 299.5 L 134.5 302 L 132.5 301 L 132.5 303 L 121 313.5 Q 121.8 315.8 119.5 315 L 116 317 L 113.5 321 L 111 322.5 L 111.5 328 L 110.5 325 Q 107.1 324.1 109 329.5 Q 111.2 330.8 110 335.5 L 109 336.5 L 109 412.5 L 110 414.5 L 110 416.5 L 109 418.5 L 109 420.5 L 110 424.5 L 109 426.5 L 109 428.5 L 110.5 431 L 111 429 L 115 426.5 L 114 424.5 L 116 423.5 L 116.5 425 L 117 423 L 119 423 Q 117.9 420.3 120.5 421 L 120.5 420 L 119 419.5 L 121.5 418 L 124 419 L 129 411 Q 131.7 412.1 131 409.5 L 131.5 408 L 130 407.5 L 131.5 407 L 133.5 408 L 135 405 Q 138 406 137 403 L 139.5 403 L 141 400 L 144 398.5 L 146.5 395 L 155 387.5 L 156.5 385 L 162 380.5 L 162 379 L 164 379 Q 162.9 376.3 165.5 377 L 168 373 L 170 373 L 170 371 L 172 371 Q 170.9 368.3 173.5 369 L 177 367 Q 175.5 363.3 178.5 364 L 184 359.5 L 186.5 356 L 188 356 Q 186.5 352.2 189.5 353 L 193.5 348 L 195 348.5 L 197.5 345 L 203 340.5 L 204 338.5 L 202 338 Q 200.8 335 204.5 336 L 207 336.5 L 160.5 384 L 155 388.5 L 155 390 L 153 390 L 153 392 L 151 392 Q 152.1 394.7 149.5 394 L 108 434.5 L 108 324.5 L 152.5 280 L 155 278.5 L 156.5 276 L 159 274.5 Q 158.3 272.3 160.5 273 L 162 270 L 166 267.5 Q 165.3 265.3 167.5 266 L 169 263 L 172 261.5 Q 171.3 259.3 173.5 260 L 181.5 252 Z " /><path fill="rgb(36,98,225)" stroke="rgb(36,98,225)" stroke-width="1" opacity="0.9921568627450981" d="M 184 252 L 187 253.5 L 184 254 L 184 252 Z " /><path fill="rgb(36,98,225)" stroke="rgb(36,98,225)" stroke-width="1" opacity="0.9921568627450981" d="M 276.5 258 L 278 258.5 L 274 261.5 L 276.5 258 Z " /><path fill="rgb(36,98,225)" stroke="rgb(36,98,225)" stroke-width="1" opacity="0.9921568627450981" d="M 333.5 266 L 332 268.5 Q 332.7 271.1 330 270 Q 328.9 267.3 331.5 268 L 333.5 266 Z " /><path fill="rgb(36,98,225)" stroke="rgb(36,98,225)" stroke-width="1" opacity="0.9921568627450981" d="M 259 274 Q 262.7 272.5 262 275.5 L 259 277 L 259 274 Z " /><path fill="rgb(36,98,225)" stroke="rgb(36,98,225)" stroke-width="1" opacity="0.9921568627450981" d="M 256 278 Q 258.7 276.9 258 279.5 L 256 280.5 L 256 278 Z " /><path fill="rgb(36,98,225)" stroke="rgb(36,98,225)" stroke-width="1" opacity="0.9921568627450981" d="M 309.5 280 L 312.5 282 L 311.5 284 L 310.5 282 L 309.5 286 L 308 285.5 Q 308.8 287.8 306.5 287 L 305.5 286 L 302 289.5 L 303 291.5 L 300 292 L 301 294.5 L 299.5 294 Q 296.5 294.8 298 291 L 301 289.5 L 302.5 287 Q 304.8 287.8 304 285.5 L 308 282.5 L 309.5 280 Z " /><path fill="rgb(36,98,225)" stroke="rgb(36,98,225)" stroke-width="1" opacity="0.9921568627450981" d="M 250.5 289 L 249.5 291 L 250.5 289 Z " /><path fill="rgb(36,98,225)" stroke="rgb(36,98,225)" stroke-width="1" opacity="0.9921568627450981" d="M 296.5 293 L 297 295 L 295 295 Q 296.1 297.7 293.5 297 L 293.5 298 L 296 298.5 L 292 301.5 Q 294.3 302.8 291.5 304 L 289.5 301 L 288 305 Q 285.3 303.9 286 306.5 L 283 308.5 L 284.5 311 L 286 310.5 L 285 313 L 282 312.5 L 282.5 309 L 279 311.5 Q 279.8 313.8 277.5 313 L 278.5 316 L 276.5 315 L 274 319.5 L 277 321 L 279.5 325 Q 281.8 324.3 281 326.5 L 284.5 329 L 286 328.5 L 285 330.5 L 285.5 332 Q 283.3 332.8 284 330.5 L 280 327.5 L 277.5 324 Q 275.3 324.8 276 322.5 L 272 319.5 L 272 317.5 L 296.5 293 Z " /><path fill="rgb(36,98,225)" stroke="rgb(36,98,225)" stroke-width="1" opacity="0.9921568627450981" d="M 234.5 309 L 236 309.5 L 233 311.5 Q 233.8 313.8 231.5 313 L 225.5 319 L 224 317.5 L 225.5 315 L 226.5 317 L 227 315 Q 229.7 316.1 229 313.5 L 228 311 Q 230.7 309.9 230 312.5 L 234.5 309 Z " /><path fill="rgb(36,98,225)" stroke="rgb(36,98,225)" stroke-width="1" opacity="0.9921568627450981" d="M 125.5 311 L 126 313 L 124 312.5 L 125.5 311 Z " /><path fill="rgb(36,98,225)" stroke="rgb(36,98,225)" stroke-width="1" opacity="0.9921568627450981" d="M 223.5 320 L 209.5 335 Q 207.3 334.3 208 330.5 Q 209.5 327.5 211 330.5 L 210 332.5 L 216 327.5 L 217.5 325 L 221 322.5 Q 220.3 320.3 222.5 321 L 223.5 320 Z " /><path fill="rgb(36,98,225)" stroke="rgb(36,98,225)" stroke-width="1" opacity="0.9921568627450981" d="M 278.5 320 L 279.5 322 Q 276.7 322.7 278.5 320 Z " /><path fill="rgb(36,98,225)" stroke="rgb(36,98,225)" stroke-width="1" opacity="0.9921568627450981" d="M 212 322 Q 215 321 214 324 Q 211 325 212 322 Z " /><path fill="rgb(36,98,225)" stroke="rgb(36,98,225)" stroke-width="1" opacity="0.9921568627450981" d="M 248.5 325 L 262 336 L 263.5 339 L 285.5 360 L 287 360 Q 285.9 362.7 288.5 362 L 311.5 385 L 313 385 L 314.5 388 L 342 413.5 L 341.5 415 L 336 410.5 L 334.5 408 L 332 406.5 Q 332.8 404.3 330.5 405 L 326.5 400 L 317 393 L 313.5 388 Q 312.3 390.3 311 387.5 Q 311.5 383.5 308.5 383 L 305.5 381 L 299.5 374 L 297 372.5 Q 297.8 370.3 295.5 371 L 290.5 367 L 289 367.5 L 289 365.5 L 280.5 356 L 279 356.5 L 279.5 355 L 276 356 L 276.5 354 L 278 354.5 L 274.5 350 Q 272.3 350.8 273 348.5 L 270.5 347 L 268.5 348 L 268.5 347 L 270 346.5 L 267 345.5 L 267 343.5 L 267 342 L 265 342 Q 266.1 339.3 263.5 340 L 257 335 L 257 333 L 253 331 L 252.5 333 L 250.5 328 L 249.5 330 L 249 328.5 L 250 326 L 243 331.5 L 249 335.5 L 246 336 L 244.5 333 L 242.5 334 L 240.5 334 Q 238.3 333.3 239 335.5 L 237.5 338 Q 239.8 337.3 239 339.5 L 237.5 339 Q 233.8 337.8 235 341.5 L 233 341.5 L 234 343.5 L 232.5 343 L 228 345.5 L 227 348.5 L 227.5 350 Q 225.8 346.3 224 349.5 L 224.5 351 L 220 353.5 L 222 354 L 222 356 L 218 356 L 218 357.5 L 216 356.5 L 246 327.5 Q 245.3 325.3 247.5 326 L 248.5 325 Z " /><path fill="rgb(36,98,225)" stroke="rgb(36,98,225)" stroke-width="1" opacity="0.9921568627450981" d="M 286.5 333 L 293 336.5 Q 290.8 337.8 293.5 339 L 295 338.5 L 295.5 340 L 297.5 339 L 299 340.5 Q 295.3 342.3 298.5 344 L 301.5 342 L 303 344.5 L 301.5 344 L 300 344.5 L 303.5 349 L 306.5 351 Q 307.9 355.8 313 355 L 315.5 359 L 318 360.5 L 318 362.5 Q 317.3 364.8 319.5 364 L 321 367 L 327.5 372 L 329 371.5 Q 327.3 376.3 331.5 375 L 334 374 L 332 377.5 L 337 381.5 Q 336.3 383.8 338.5 383 L 340 386 L 346 389.5 L 345.5 391 L 349 393.5 Q 348.3 395.8 350.5 395 L 353 399 L 359.5 404 L 360.5 402 L 361 403.5 L 360.5 405 L 363 406.5 L 363.5 408 L 366 406.5 L 365 409.5 L 374 417.5 L 371.5 418 L 367 412 L 362 408.5 L 362 407 L 360 407 Q 361.1 404.3 358.5 405 L 294.5 341 L 293 341 L 293 339 Q 290.3 340.1 291 337.5 L 286.5 333 Z " /><path fill="rgb(36,98,225)" stroke="rgb(36,98,225)" stroke-width="1" opacity="0.9921568627450981" d="M 257.5 338 L 258 339.5 L 256 340.5 L 257.5 338 Z " /><path fill="rgb(36,98,225)" stroke="rgb(36,98,225)" stroke-width="1" opacity="0.9921568627450981" d="M 259.5 339 L 263 343.5 L 259 344 L 259.5 339 Z " /><path fill="rgb(36,98,225)" stroke="rgb(36,98,225)" stroke-width="1" opacity="0.9921568627450981" d="M 194 340 Q 197 339 196 342 Q 193 343 194 340 Z " /><path fill="rgb(36,98,225)" stroke="rgb(36,98,225)" stroke-width="1" opacity="0.9921568627450981" d="M 238 347 Q 241.3 345.9 240 350 Q 236.7 351.1 238 347 Z " /><path fill="rgb(36,98,225)" stroke="rgb(36,98,225)" stroke-width="1" opacity="0.9921568627450981" d="M 256 347 Q 259 346 258 349 Q 255 350 256 347 Z " /><path fill="rgb(36,98,225)" stroke="rgb(36,98,225)" stroke-width="1" opacity="0.9921568627450981" d="M 231.5 349 L 230.5 351 L 231.5 349 Z " /><path fill="rgb(36,98,225)" stroke="rgb(36,98,225)" stroke-width="1" opacity="0.9921568627450981" d="M 184.5 353 L 186 353.5 L 184 354 Q 185 357 182 356 Q 180.9 353.3 183.5 354 L 184.5 353 Z " /><path fill="rgb(36,98,225)" stroke="rgb(36,98,225)" stroke-width="1" opacity="0.9921568627450981" d="M 273.5 354 L 274 355.5 L 272.5 359 L 272 356.5 L 273.5 354 Z " /><path fill="rgb(36,98,225)" stroke="rgb(36,98,225)" stroke-width="1" opacity="0.9921568627450981" d="M 214.5 357 L 216 358.5 L 214.5 362 L 213 361.5 L 210.5 365 L 208 366.5 L 209.5 367 L 211 366.5 L 208.5 368 L 206.5 368 Q 203.2 366.9 204 369.5 L 204.5 371 L 201.5 371 L 197 375.5 L 195 378.5 L 195.5 380 L 193.5 379 L 187 387 L 185 387 Q 186.1 389.7 183.5 389 L 179.5 396 L 178 395.5 L 178.5 394 L 176 395.5 L 176.5 397 L 173.5 399 L 171.5 403 L 171.5 401 L 168.5 403 L 162.5 410 L 164.5 409 L 162.5 412 L 161.5 410 Q 158.3 411.8 162 413.5 Q 162.8 415.8 160.5 415 L 159.5 412 L 159 414 L 155 415 L 153.5 419 L 150 420.5 L 151 422.5 L 150 422.5 L 149.5 421 Q 146.3 422.2 147 426 L 141 429.5 L 141.5 431 L 140.5 430 L 136 434.5 L 140.5 435 L 144 433 L 144.5 435 L 360.5 435 L 359 432.5 Q 359.8 429.9 356.5 431 L 353.5 433 L 353 431 L 357 429.5 L 348 421.5 L 346.5 419 L 344 417.5 L 344.5 416 L 345 418 L 346.5 418 L 364 435.5 L 134.5 436 L 151.5 418 Q 153.8 418.8 153 416.5 L 159 411.5 Q 158.3 409.3 160.5 410 L 209.5 362 L 211 362 Q 209.9 359.3 212.5 360 L 214.5 357 Z " /><path fill="rgb(36,98,225)" stroke="rgb(36,98,225)" stroke-width="1" opacity="0.9921568627450981" d="M 178 358 Q 181 357 180 360 Q 177 361 178 358 Z " /><path fill="rgb(36,98,225)" stroke="rgb(36,98,225)" stroke-width="1" opacity="0.9921568627450981" d="M 278.5 358 L 282 360.5 L 280.5 360 L 278.5 358 Z " /><path fill="rgb(36,98,225)" stroke="rgb(36,98,225)" stroke-width="1" opacity="0.9921568627450981" d="M 283.5 365 L 286 366.5 L 283.5 368 L 283.5 365 Z " /><path fill="rgb(36,98,225)" stroke="rgb(36,98,225)" stroke-width="1" opacity="0.9921568627450981" d="M 219.5 366 L 220.5 368 L 219.5 366 Z " /><path fill="rgb(36,98,225)" stroke="rgb(36,98,225)" stroke-width="1" opacity="0.9921568627450981" d="M 206.5 371 L 204.5 374 L 206.5 371 Z " /><path fill="rgb(36,98,225)" stroke="rgb(36,98,225)" stroke-width="1" opacity="0.9921568627450981" d="M 293.5 376 Q 297.3 374.8 296 378.5 L 292 380 L 293.5 376 Z " /><path fill="rgb(36,98,225)" stroke="rgb(36,98,225)" stroke-width="1" opacity="0.9921568627450981" d="M 195.5 382 L 199 383.5 L 196.5 384 L 195.5 382 Z " /><path fill="rgb(36,98,225)" stroke="rgb(36,98,225)" stroke-width="1" opacity="0.9921568627450981" d="M 145.5 384 L 146 386 L 144 385.5 L 145.5 384 Z " /><path fill="rgb(36,98,225)" stroke="rgb(36,98,225)" stroke-width="1" opacity="0.9921568627450981" d="M 189.5 386 Q 194 388 190.5 390 L 190 388 L 188 387.5 L 189.5 386 Z " /><path fill="rgb(36,98,225)" stroke="rgb(36,98,225)" stroke-width="1" opacity="0.9921568627450981" d="M 185 390 Q 189.1 388.7 188 392 Q 183.9 393.3 185 390 Z " /><path fill="rgb(36,98,225)" stroke="rgb(36,98,225)" stroke-width="1" opacity="0.9921568627450981" d="M 312.5 391 L 310.5 394 L 312.5 391 Z " /><path fill="rgb(36,98,225)" stroke="rgb(36,98,225)" stroke-width="1" opacity="0.9921568627450981" d="M 307.5 395 Q 309.8 394.3 309 396.5 Q 307.5 399.5 306 396.5 L 307.5 395 Z " /><path fill="rgb(36,98,225)" stroke="rgb(36,98,225)" stroke-width="1" opacity="0.9921568627450981" d="M 315.5 398 L 316.5 400 Q 313.7 400.7 315.5 398 Z " /><path fill="rgb(36,98,225)" stroke="rgb(36,98,225)" stroke-width="1" opacity="0.9921568627450981" d="M 174 402 Q 177 401 176 404 L 173.5 405 L 174 403.5 L 174 402 Z " /><path fill="rgb(36,98,225)" stroke="rgb(36,98,225)" stroke-width="1" opacity="0.9921568627450981" d="M 320.5 403 L 324 404.5 L 320.5 407 L 321 405.5 L 320.5 403 Z " /><path fill="rgb(36,98,225)" stroke="rgb(36,98,225)" stroke-width="1" opacity="0.9921568627450981" d="M 166.5 408 L 168 410.5 L 166 409.5 L 166.5 408 Z " /><path fill="rgb(36,98,225)" stroke="rgb(36,98,225)" stroke-width="1" opacity="0.9921568627450981" d="M 332 412 Q 335 411 334 414 Q 331 413 332 416 L 329.5 416 L 330.5 414 Q 333.1 414.7 332 412 Z " /><path fill="rgb(36,98,225)" stroke="rgb(36,98,225)" stroke-width="1" opacity="0.9921568627450981" d="M 164.5 413 L 167 414.5 L 163.5 416 L 164 414.5 L 164.5 413 Z " /><path fill="rgb(36,98,225)" stroke="rgb(36,98,225)" stroke-width="1" opacity="0.9921568627450981" d="M 336.5 413 L 340 415 L 341.5 419 L 343 419.5 L 341.5 420 L 336.5 413 Z " /><path fill="rgb(36,98,225)" stroke="rgb(36,98,225)" stroke-width="1" opacity="0.9921568627450981" d="M 376.5 418 L 377.5 420 L 376 420.5 L 378 421 L 379.5 424 L 381 423.5 L 380.5 422 L 382 423.5 L 381.5 426 L 377 424 Q 378.1 421.3 375.5 422 L 373.5 419 L 376.5 418 Z " /><path fill="rgb(36,98,225)" stroke="rgb(36,98,225)" stroke-width="1" opacity="0.9921568627450981" d="M 152.5 423 L 156 428 Q 152.2 429.5 153 426.5 Q 149.3 424.8 152.5 423 Z " /><path fill="rgb(36,98,225)" stroke="rgb(36,98,225)" stroke-width="1" opacity="0.9921568627450981" d="M 383.5 426 L 387 428.5 L 386.5 430 L 385.5 428 L 384.5 430 Q 380 428 383.5 426 Z " /><path fill="rgb(37,99,234)" stroke="rgb(37,99,234)" stroke-width="1" opacity="0.996078431372549" d="M 109.5 74 L 110 77.5 L 109 77.5 L 109.5 74 Z " /><path fill="rgb(37,99,234)" stroke="rgb(37,99,234)" stroke-width="1" opacity="0.996078431372549" d="M 109.5 147 L 110 170.5 L 109 170.5 L 109.5 147 Z " /><path fill="rgb(37,99,234)" stroke="rgb(37,99,234)" stroke-width="1" opacity="0.996078431372549" d="M 208.5 335 L 206.5 338 L 208.5 335 Z " /><path fill="rgb(37,99,234)" stroke="rgb(37,99,234)" stroke-width="1" opacity="0.996078431372549" d="M 109.5 336 L 110 412.5 L 109 412.5 L 109.5 336 Z " /><path fill="rgb(37,99,234)" stroke="rgb(37,99,234)" stroke-width="1" opacity="0.996078431372549" d="M 109.5 420 L 110 423.5 L 109 423.5 L 109.5 420 Z " /><path fill="rgb(37,99,234)" stroke="rgb(37,99,234)" stroke-width="1" opacity="1" d="M 140.5 66 L 141 68 L 143.5 69 L 144 67 L 154.5 67 L 159.5 69 L 159.5 67 L 360.5 67 L 361 68.5 L 354 74.5 Q 354.8 76.8 352.5 76 L 341 86.5 L 340.5 88 L 340 86 Q 337.3 84.9 338 87.5 L 339 89.5 Q 337 93.2 335 91.5 L 334.5 93 L 333.5 91 L 333 93 Q 330.3 91.9 331 94.5 L 332.5 94 L 334 94.5 L 332 95 L 330.5 98 Q 328.3 97.3 329 99.5 L 325 101 L 324 105 L 318 107 Q 319.1 109.7 316.5 109 L 315 112 L 311 112.5 Q 315.2 114.7 310.5 117 Q 308.3 116.3 309 118.5 L 303 122.5 L 303.5 124 L 295 130.5 Q 297.2 131.8 294.5 133 L 292.5 134 L 291 133.5 L 292 135.5 L 288 137 L 286.5 140 Q 282.8 138.8 284 142.5 L 279 145.5 L 279.5 147 L 277 147.5 L 277.5 149 L 275 149.5 Q 277.3 150.8 274.5 152 L 272 153.5 L 270.5 156 L 266 157.5 Q 268.7 159.3 264.5 161 Q 262.3 160.3 263 162.5 L 257 167 L 256.5 169 L 254 168 L 255 170.5 L 250.5 173 L 247 173 Q 248.1 170.3 245.5 171 L 246 169.5 L 243.5 166 L 241.5 167 L 239.5 163 L 238 163.5 L 238.5 162 L 235 160.5 Q 236.7 155.7 232.5 157 L 230 156 Q 231.1 153.3 228.5 154 Q 225.7 152.8 228 151.5 L 227.5 150 L 225.5 151 L 216 143 L 214.5 140 Q 212.3 140.8 213 138.5 L 208 134.5 L 206.5 132 L 197 125 L 192.5 119 Q 190.3 119.8 191 117.5 L 184 111.5 L 182.5 109 L 179 106.5 Q 179.8 104.3 177.5 105 L 175 101 L 171 98.5 Q 171.8 96.3 169.5 97 L 167 93 L 164 91.5 L 163.5 89 L 161.5 90 L 154 81 L 150 78.5 L 147.5 75 L 139 68.5 L 140.5 66 Z M 353 69 Q 350 73 354 72 L 353 69 Z M 150 70 L 151 72 L 153 71 L 150 70 Z M 156 75 L 154 76 L 155 78 L 159 77 L 156 75 Z M 160 80 L 158 82 L 160 82 L 160 80 Z M 173 83 L 169 87 L 171 88 L 173 85 L 173 83 Z M 174 89 L 174 91 L 176 90 L 174 89 Z M 335 89 L 335 90 L 337 90 L 335 89 Z M 168 91 L 167 93 L 170 93 L 168 91 Z M 188 96 L 188 98 L 190 97 L 188 96 Z M 325 98 L 323 99 L 323 102 L 326 100 Q 327 97 325 98 Z M 178 100 L 178 102 L 180 103 Q 181 99 178 100 Z M 185 100 L 186 102 L 187 102 L 185 100 Z M 185 108 L 185 109 L 187 109 L 185 108 Z M 200 114 Q 199 117 202 116 Q 203 113 200 114 Z M 290 115 L 288 117 Q 287 119 290 118 Q 293 117 290 115 Z M 300 118 L 298 120 L 300 121 L 300 118 Z M 199 120 L 200 123 L 202 122 Q 203 119 199 120 Z M 291 123 Q 290 128 294 126 L 295 124 L 291 123 Z M 203 126 Q 202 129 205 128 Q 206 125 203 126 Z M 212 128 Q 211 131 215 130 Q 216 127 212 128 Z M 274 131 L 276 134 L 278 133 L 274 131 Z M 291 131 L 289 133 L 291 133 L 291 131 Z M 284 134 Q 281 135 283 137 L 280 138 L 281 140 L 285 137 Q 286 133 284 134 Z M 216 135 L 217 137 Q 218 134 216 135 Z M 222 138 Q 221 141 224 140 Q 225 137 222 138 Z M 272 139 Q 271 143 274 142 Q 275 138 272 139 Z M 237 147 L 235 150 L 237 149 L 237 147 Z M 269 150 Q 266 152 269 153 L 272 152 Q 273 149 269 150 Z M 230 152 L 230 154 L 233 153 L 230 152 Z M 256 160 L 256 162 L 259 161 L 256 160 Z M 248 163 L 250 165 Q 251 162 248 163 Z M 252 167 L 252 169 L 254 168 L 252 167 Z " /><path fill="rgb(37,99,234)" stroke="rgb(37,99,234)" stroke-width="1" opacity="1" d="M 388.5 68 L 389 71.5 Q 385 73.5 389 75.5 L 388 79.5 L 389 80.5 L 389 423.5 L 389 425.5 L 388 428.5 L 389 431 L 385 429.5 Q 385.8 427.3 383.5 428 L 381 426.5 Q 383.2 425.3 380.5 424 L 378 422.5 Q 378.8 420.3 376.5 421 L 376.5 420 L 378 419.5 Q 376.7 416.7 375.5 419 L 372.5 417 L 361.5 405 L 353 399 L 350.5 395 Q 348.3 395.8 349 393.5 L 345 390.5 L 345.5 389 L 340 386 L 338.5 383 Q 336.3 383.8 337 381.5 L 332 377.5 L 334 374 L 329 375 L 328.5 371 L 327.5 372 L 322.5 367 Q 320.3 367.8 321 365.5 L 318 364 L 317 361.5 Q 319.3 360.3 316.5 359 L 313 356.5 Q 313.8 353.9 310.5 355 L 305 351 Q 306.1 348.3 303.5 349 L 299.5 344 L 297 342.5 Q 300.8 340.8 297.5 339 L 295.5 340 L 294.5 338 Q 293.3 340.3 292 337.5 L 292.5 336 L 285 330.5 L 286 328.5 L 284.5 329 L 281 326.5 Q 281.8 324.3 279.5 325 L 277 321 L 274 319.5 L 276.5 315 L 278 314.5 L 277.5 313 Q 279.8 313.8 279 311.5 L 286 306.5 Q 285.3 303.9 288 305 L 288 302 L 289.5 302 L 290.5 303 L 293.5 300 L 296 298.5 L 293 297.5 L 295 297 L 295 295 Q 297.7 296.1 297 293.5 L 298.5 294 Q 301.1 294.7 300 292 L 302.5 292 L 302 290.5 L 305.5 286 L 308 287 L 307 284.5 L 309 283.5 Q 306.8 284.7 309.5 286 L 312.5 279 Q 317.5 279.5 318 275.5 Q 317.5 270.5 321.5 270 L 324 271 L 327 266.5 L 326 265.5 L 329.5 262 L 335 258.5 Q 332.8 257.3 335.5 256 L 339 253.5 L 340 248.5 L 336 246 L 334.5 243 Q 332.3 243.8 333 241.5 L 330.5 238 L 332.5 239 L 333 237.5 L 329.5 236 L 327.5 236 L 325 234.5 L 324 230 L 321.5 231 L 319.5 228 L 317 226.5 Q 317.8 224.3 315.5 225 L 313.5 222 L 316 220.5 L 313.5 219 Q 312 222.5 310.5 220 Q 308.3 220.8 309 218.5 Q 305 216.5 309 214.5 L 307.5 212 L 305.5 215 L 300.5 209 L 297 206.5 L 299 206 Q 300.3 203 296.5 204 L 295 204.5 L 293.5 202 L 291 200.5 L 292 197 Q 289.3 195.9 290 198.5 L 287 196.5 Q 287.8 194.3 285.5 195 L 282.5 191 L 273 182.5 Q 272.3 180.3 274.5 181 L 276 181.5 Q 275.3 177.8 277.5 177 L 282 174.5 Q 279.8 173.3 282.5 172 Q 285.1 172.7 284 170 L 286.5 170 L 288 167 L 290 166.5 L 289.5 165 Q 290.8 167.3 292 164.5 L 295.5 160 L 298 158.5 L 297.5 157 Q 298.8 159.3 300 156.5 L 299.5 155 L 305 152 L 306.5 149 L 308 149 L 308 147 Q 310.7 148.1 310 145.5 L 322.5 133 L 324 133.5 L 329 125 L 337.5 118 Q 338.8 120.3 340 117.5 Q 339.3 115.3 341.5 116 L 343.5 116 L 345 115.5 L 342 114.5 L 345.5 110 L 348.5 108 L 351 106.5 L 350.5 105 Q 352.8 105.8 352 103.5 L 354 102.5 L 354.5 104 L 356 100 L 359.5 101 L 360 99.5 Q 356.3 97.8 359.5 96 L 362 94.5 L 365.5 90 L 368 88.5 Q 367.3 86.3 369.5 87 L 372 88 L 372 84 L 373.5 84 L 376.5 80 L 379.5 81 L 378.5 79 L 377 78.5 L 381 76 Q 379.9 73.3 382.5 74 Q 385.3 68.6 388 70.5 L 388.5 68 Z M 381 85 L 380 86 Q 377 85 378 88 L 382 86 L 381 85 Z M 374 90 L 373 94 L 376 92 Q 377 89 374 90 Z M 382 94 Q 381 97 384 96 Q 385 93 382 94 Z M 362 96 Q 361 99 364 98 Q 365 95 362 96 Z M 352 106 Q 351 109 354 108 Q 355 105 352 106 Z M 349 111 L 346 112 Q 345 115 349 114 L 349 111 Z M 338 122 L 336 125 L 338 124 L 338 122 Z M 346 126 L 344 128 L 347 128 Q 348 125 346 126 Z M 330 130 L 332 134 L 333 132 L 330 130 Z M 335 138 L 333 140 L 336 141 Q 338 137 335 138 Z M 313 147 Q 312 150 316 149 Q 317 146 313 147 Z M 307 153 Q 306 157 309 156 Q 310 152 307 153 Z M 317 155 L 315 157 L 316 159 L 318 158 L 319 156 L 317 155 Z M 297 163 Q 296 166 300 165 Q 301 162 297 163 Z M 291 169 Q 290 173 293 172 Q 294 168 291 169 Z M 301 171 L 299 173 L 300 175 L 302 174 L 303 172 L 301 171 Z M 287 173 L 285 175 L 287 175 L 287 173 Z M 282 176 Q 280 179 284 180 L 284 177 L 282 176 Z M 285 188 L 283 190 Q 285 193 286 190 Q 287 187 285 188 Z M 298 196 Q 297 199 300 198 Q 301 195 298 196 Z M 294 200 Q 293 203 296 202 Q 297 199 294 200 Z M 303 202 L 304 204 Q 305 201 303 202 Z M 324 224 L 324 225 L 326 225 L 324 224 Z M 328 228 Q 327 231 331 230 Q 332 227 328 228 Z M 326 231 L 327 233 L 328 233 L 326 231 Z M 336 233 L 334 236 L 336 235 L 336 233 Z M 341 240 L 341 242 L 344 241 L 341 240 Z M 347 240 Q 346 243 350 242 Q 351 239 347 240 Z M 344 249 L 342 253 L 344 254 L 346 253 L 344 249 Z M 330 268 Q 329 271 332 270 Q 333 267 330 268 Z M 311 282 L 311 284 L 313 283 L 311 282 Z M 284 309 L 282 313 L 285 313 L 284 309 Z M 279 320 Q 277 323 280 322 L 279 320 Z M 302 342 L 300 344 L 302 344 L 303 345 L 302 342 Z M 366 406 L 364 408 L 366 409 L 366 406 Z " /><path fill="rgb(37,99,234)" stroke="rgb(37,99,234)" stroke-width="1" opacity="1" d="M 109 69 L 112 70.5 L 113.5 73 Q 116.1 72.2 115 75.5 L 117 75.5 L 119 78.5 L 123 81 Q 121.9 83.7 124.5 83 L 129.5 89 L 135 93.5 Q 134.3 95.8 136.5 95 L 140 100 L 144 101.5 L 145.5 104 L 147 104.5 Q 144.8 105.8 147.5 107 Q 148.8 104.8 150 107.5 L 157.5 117 Q 158.8 114.8 160 117.5 L 164 122.5 L 164.5 126 Q 166.3 122.3 168 125.5 L 167.5 127 L 172 129.5 Q 169.8 130.8 172.5 132 L 176 133.5 L 177.5 136 L 181 138.5 Q 178.8 139.8 181.5 141 Q 182.8 138.8 184 141.5 L 185.5 144 Q 187.8 143.3 187 145.5 L 195 152.5 Q 194.3 154.8 196.5 154 Q 201.3 156.5 199.5 159 Q 203.3 157.8 202 161.5 L 216 173.5 L 217.5 176 L 220 177.5 L 220.5 180 L 221.5 179 L 227.5 185 L 229 185 L 229 187 Q 231.7 185.9 231 188.5 L 241.5 200 Q 244.1 199.2 243 202.5 L 245.5 203 L 249 205.5 Q 246.8 206.7 249.5 208 Q 251.8 207.3 251 209.5 Q 252.3 213.8 257 213 L 257 215 Q 259.7 213.9 259 216.5 L 258.5 218 L 260.5 217 L 260.5 219 L 262.5 219 L 267 223.5 L 266 225.5 L 268 226 Q 266.9 228.7 269.5 228 L 271.5 228 L 282 238.5 L 282.5 241 L 284 240.5 Q 281.3 242.3 285.5 244 L 287 243.5 Q 284.8 244.8 287.5 246 L 289 245.5 Q 288.3 247.8 290.5 247 L 293 252 L 290 252.5 Q 292.8 254.2 288.5 256 Q 285.9 255.3 287 258 L 284.5 258 L 283 262 L 279 263 L 277.5 266 L 274 268.5 L 273 272 L 269.5 274 L 268 273.5 Q 268.7 276.1 266 275 L 266 277.5 L 264 281 L 257 284.5 L 259 285.5 L 256 287 L 254.5 290 Q 253.3 287.8 252 290.5 Q 252.8 292.8 250.5 292 L 249 295 Q 246.3 293.9 247 296.5 L 241.5 300 L 240 299.5 L 241 302.5 L 237.5 305 L 236 304.5 L 237 306.5 L 236 309 L 230.5 313 L 230 311 Q 227.3 309.9 228 312.5 L 229 315 Q 226.3 313.9 227 316.5 L 226 316.5 L 225.5 315 L 224 317.5 Q 226.7 319.2 222.5 321 Q 220.3 320.3 221 322.5 L 216 326.5 L 210.5 333 L 208.5 330 L 208 333.5 Q 210.2 334.7 207.5 336 L 205.5 337 L 202 336 Q 200.9 338.7 203.5 338 L 203 339.5 L 198.5 345 L 195 347.5 L 194.5 349 Q 193.3 346.8 192 349.5 L 189.5 353 L 188 353 Q 189.5 356.8 186.5 356 L 184 360 L 177 364 Q 178.5 367.7 175.5 367 L 172 369 L 172 371 L 170 371 L 170 373 Q 167.3 371.9 168 374.5 L 164 377 L 164 379 Q 161.3 377.9 162 380.5 L 155 386.5 L 147.5 395 L 144 397.5 L 142.5 400 Q 140.3 399.3 141 401.5 L 137 403 L 137 405 Q 134.3 403.9 135 406.5 L 132 408.5 L 132.5 410 L 131 409.5 L 129 412.5 L 124 419 L 119 421 L 119 423 Q 116.3 421.9 117 424.5 L 116 424.5 L 115.5 423 Q 112.8 424.3 115 425.5 L 112.5 429 Q 110.3 428.3 111 430.5 L 110 430.5 L 110 409.5 L 111 408.5 L 110 407.5 L 110 329.5 L 109 325 L 112 323.5 Q 109.7 322.3 112.5 321 L 116 318.5 Q 115.3 316.3 117.5 317 L 121 315 L 121 313.5 L 131.5 303 L 133 302.5 L 132.5 301 L 135.5 300 Q 136.7 302.3 138 299.5 L 137 297.5 L 138.5 298 Q 140.8 298.8 140 296.5 L 139 295.5 L 142.5 292 L 144 292.5 L 146.5 288 Q 149.1 288.8 148 285.5 L 151.5 283 L 153.5 284 L 154.5 282 L 153 281.5 L 158 278 L 161.5 273 Q 163.8 273.8 163 271.5 L 168 268.5 L 167.5 267 L 169 267 L 169 265 Q 171.7 266.1 171 263.5 L 172 263.5 L 172.5 265 L 177 257 L 180 255.5 L 181.5 253 L 183 252.5 L 183 247 L 185.5 247 L 184.5 245 L 180 247 Q 181 244 178 245 L 178 242.5 L 176.5 243 L 172 238.5 Q 174.3 237.3 171.5 236 L 168 234.5 L 168.5 233 L 164 230.5 L 164.5 229 Q 161.9 229.7 163 227 L 160.5 227 L 156 222.5 Q 158.3 221.2 155.5 220 Q 150.5 220.5 150 216.5 L 148 213.5 L 147.5 211 Q 142.8 210.8 141 207.5 L 142.5 205 L 140.5 206 L 139 202 Q 136.3 203.1 137 200.5 L 136 200.5 L 135.5 202 Q 131.4 200.6 131.5 195 L 130.5 197 L 126 194 L 126 192 Q 123.3 193.1 124 190.5 Q 126.2 189.3 123.5 188 L 120 187.5 Q 122.3 186.3 119.5 185 L 118 185.5 Q 120.3 184.3 117.5 183 Q 114.9 183.8 116 180.5 Q 114.8 177.8 113.5 180 L 111 178.5 L 109 173.5 L 110 172.5 L 110 147.5 L 112 145.5 L 110 143.5 L 110 80 Q 115.2 81.7 114 78 L 110 79 L 109 72.5 L 109 70.5 L 109 69 Z M 124 87 L 121 89 Q 122 91 126 90 L 124 87 Z M 116 94 L 118 96 Q 119 93 116 94 Z M 123 94 Q 122 97 125 96 Q 126 93 123 94 Z M 142 103 L 139 105 L 145 107 L 145 106 L 142 103 Z M 133 106 L 131 112 L 134 110 L 133 106 Z M 145 107 L 145 109 L 147 108 L 145 107 Z M 146 122 L 146 125 L 150 126 Q 152 120 146 122 Z M 169 130 L 166 132 L 170 135 L 171 134 L 170 136 L 173 138 Q 174 132 171 131 L 170 133 L 169 130 Z M 164 137 L 163 141 L 167 141 L 166 138 L 164 137 Z M 183 148 L 183 150 Q 183 154 189 153 Q 190 155 191 153 Q 190 150 189 152 L 187 149 L 186 149 L 183 148 Z M 187 158 Q 186 161 190 160 Q 191 157 187 158 Z M 197 162 L 195 164 Q 194 167 198 165 L 197 162 Z M 192 170 L 192 172 Q 194 175 195 172 L 192 170 Z M 120 180 L 121 182 Q 123 181 122 184 Q 125 185 124 183 Q 124 180 120 180 Z M 210 186 L 212 190 Q 215 191 214 188 L 210 186 Z M 224 195 Q 223 199 226 198 Q 227 194 224 195 Z M 140 196 Q 139 199 142 198 Q 143 195 140 196 Z M 233 196 L 232 198 L 235 200 L 233 196 Z M 228 202 L 226 205 L 229 206 Q 232 204 228 202 Z M 234 206 Q 233 209 237 208 Q 238 205 234 206 Z M 155 210 L 151 213 L 154 214 Q 158 212 155 210 Z M 246 212 Q 244 215 247 214 L 246 212 Z M 159 217 L 159 220 Q 162 219 159 217 Z M 253 218 Q 252 221 256 220 Q 257 217 253 218 Z M 170 226 L 172 230 Q 175 231 174 229 L 170 226 Z M 273 238 L 273 240 L 275 239 L 273 238 Z M 190 249 Q 189 253 192 252 Q 193 248 190 249 Z M 184 252 L 184 254 L 187 254 L 184 252 Z M 277 258 L 274 262 L 278 259 L 277 258 Z M 259 274 L 259 277 L 262 276 Q 263 273 259 274 Z M 256 278 L 256 281 L 258 280 Q 259 277 256 278 Z M 126 311 L 124 313 L 126 313 L 126 311 Z M 212 322 Q 211 325 214 324 Q 215 321 212 322 Z M 194 340 Q 193 343 196 342 Q 197 339 194 340 Z M 182 354 Q 181 357 184 356 Q 185 353 182 354 Z M 178 358 Q 177 361 180 360 Q 181 357 178 358 Z M 146 384 L 144 386 L 146 386 L 146 384 Z M 121 418 L 120 420 L 122 419 L 121 418 Z " /><path fill="rgb(37,99,234)" stroke="rgb(37,99,234)" stroke-width="1" opacity="1" d="M 248.5 326 Q 250.8 325.3 250 327.5 L 252.5 333 L 253 331 L 255 331 L 255 333 L 257 333 Q 255.9 335.7 258.5 335 L 273 348.5 Q 272.3 350.8 274.5 350 L 278 355 L 279.5 355 L 289 364.5 L 290.5 367 L 301 375.5 L 305.5 381 L 308.5 383 L 311.5 388 L 312.5 387 L 317 391.5 Q 316.3 393.8 318.5 393 L 328 401.5 L 330.5 405 Q 332.8 404.3 332 406.5 L 336 409.5 L 337.5 412 L 343 415 L 345.5 419 L 348 420.5 L 352.5 426 L 357 429.5 L 353 431 L 353.5 433 L 359 431 L 361 434.5 L 144 435 Q 145.1 432.3 142.5 433 Q 141.5 436 136.5 435 L 143.5 427 L 147 426 L 148 422 L 150.5 423 L 151 421.5 L 150.5 420 L 155 417.5 Q 153.9 414.2 156.5 415 L 159 414 L 159 412.5 L 168.5 403 L 171.5 401 L 175 399 Q 173.9 396.3 176.5 397 L 177.5 394 L 179 394.5 L 178.5 396 L 181 394.5 Q 180.3 389.8 183.5 389 L 185 389 L 185 387 Q 187.7 388.1 187 385.5 L 197 376.5 L 200.5 372 L 205 370.5 L 204 368 L 206.5 368 L 213 362.5 L 216 358.5 L 215.5 357 L 217.5 358 L 218 356 Q 223.2 357.7 222 354 L 220 353.5 L 225 350.5 Q 222.7 349.3 225.5 348 Q 226.8 350.3 228 347.5 L 229.5 344 L 233 343 L 233.5 341 L 235 341.5 Q 233.8 337.8 237.5 339 L 239 339.5 Q 239.8 337.3 237.5 338 L 239 335.5 Q 238.3 333.3 240.5 334 L 243.5 333 L 245 332.5 L 243 331.5 L 248.5 326 Z M 246 334 L 246 336 L 249 336 L 246 334 Z M 260 339 L 259 344 L 263 344 L 260 339 Z M 238 347 Q 237 351 240 350 Q 241 346 238 347 Z M 256 347 Q 255 350 258 349 Q 259 346 256 347 Z M 277 354 Q 275 357 278 356 L 277 354 Z M 273 356 L 272 359 L 273 359 L 273 356 Z M 279 358 L 280 360 L 281 360 L 279 358 Z M 284 365 L 284 368 L 286 367 L 284 365 Z M 294 376 L 292 380 L 296 379 Q 297 375 294 376 Z M 196 382 L 197 384 L 199 384 L 196 382 Z M 190 386 L 188 388 L 190 388 L 191 390 Q 194 388 190 386 Z M 185 390 Q 184 393 188 392 Q 189 389 185 390 Z M 308 395 L 306 397 Q 308 400 309 397 Q 310 394 308 395 Z M 316 398 Q 314 401 317 400 L 316 398 Z M 174 402 Q 173 405 176 404 Q 177 401 174 402 Z M 321 403 L 321 406 L 324 405 L 321 403 Z M 162 410 L 162 412 L 164 411 L 162 410 Z M 332 412 Q 331 415 334 414 Q 335 411 332 412 Z M 162 413 L 160 415 L 162 415 L 162 413 Z M 165 413 L 164 415 L 164 416 L 167 415 L 165 413 Z M 331 414 L 329 416 L 332 416 Q 333 413 331 414 Z M 338 415 L 338 417 L 340 418 Q 341 414 338 415 Z M 153 423 Q 149 425 153 427 Q 152 429 156 428 L 153 423 Z " /><path fill="rgb(173,201,247)" stroke="rgb(173,201,247)" stroke-width="1" opacity="0.13725490196078433" d="M 105 63 L 109 63 L 109 64.5 L 129.5 85 L 131 85 L 131 87 L 133 87 L 133 89 L 135 89 L 135 91 Q 137.7 89.9 137 92.5 L 139.5 96 L 108.5 65 L 105 65 L 105 63 Z " /><path fill="rgb(173,201,247)" stroke="rgb(173,201,247)" stroke-width="1" opacity="0.13725490196078433" d="M 133.5 64 L 365 64.5 L 133.5 65 L 133.5 64 Z " /><path fill="rgb(173,201,247)" stroke="rgb(173,201,247)" stroke-width="1" opacity="0.13725490196078433" d="M 366.5 64 L 367 65.5 L 350 81.5 L 366.5 64 Z " /><path fill="rgb(173,201,247)" stroke="rgb(173,201,247)" stroke-width="1" opacity="0.13725490196078433" d="M 134.5 66 L 136.5 69 L 134.5 66 Z " /><path fill="rgb(173,201,247)" stroke="rgb(173,201,247)" stroke-width="1" opacity="0.13725490196078433" d="M 387.5 66 L 386.5 68 L 383.5 70 L 382 70.5 L 387.5 66 Z " /><path fill="rgb(173,201,247)" stroke="rgb(173,201,247)" stroke-width="1" opacity="0.13725490196078433" d="M 142.5 73 L 151.5 83 L 142.5 73 Z " /><path fill="rgb(173,201,247)" stroke="rgb(173,201,247)" stroke-width="1" opacity="0.13725490196078433" d="M 378.5 74 L 372.5 81 L 378.5 74 Z " /><path fill="rgb(173,201,247)" stroke="rgb(173,201,247)" stroke-width="1" opacity="0.13725490196078433" d="M 370.5 82 L 369.5 84 L 370.5 82 Z " /><path fill="rgb(173,201,247)" stroke="rgb(173,201,247)" stroke-width="1" opacity="0.13725490196078433" d="M 153.5 84 L 162.5 94 L 153.5 84 Z " /><path fill="rgb(173,201,247)" stroke="rgb(173,201,247)" stroke-width="1" opacity="0.13725490196078433" d="M 365.5 87 L 315.5 138 L 317 135.5 Q 316.3 133.3 318.5 134 L 328 124.5 L 328 123 L 329.5 123 L 365.5 87 Z " /><path fill="rgb(173,201,247)" stroke="rgb(173,201,247)" stroke-width="1" opacity="0.13725490196078433" d="M 342.5 88 L 343 89.5 L 334.5 97 L 339.5 91 Q 341.8 91.8 341 89.5 L 342.5 88 Z " /><path fill="rgb(173,201,247)" stroke="rgb(173,201,247)" stroke-width="1" opacity="0.13725490196078433" d="M 164.5 94 L 186.5 117 L 172.5 103 L 171 103 L 165.5 96 Q 162.7 96.7 164.5 94 Z " /><path fill="rgb(173,201,247)" stroke="rgb(173,201,247)" stroke-width="1" opacity="0.13725490196078433" d="M 143.5 98 L 146 101.5 L 145 101.5 L 143.5 98 Z " /><path fill="rgb(173,201,247)" stroke="rgb(173,201,247)" stroke-width="1" opacity="0.13725490196078433" d="M 332.5 98 L 324.5 107 L 326 104.5 Q 325.3 102.3 327.5 103 L 332.5 98 Z " /><path fill="rgb(173,201,247)" stroke="rgb(173,201,247)" stroke-width="1" opacity="0.13725490196078433" d="M 147.5 102 L 151.5 107 L 148 105 L 147.5 102 Z " /><path fill="rgb(173,201,247)" stroke="rgb(173,201,247)" stroke-width="1" opacity="0.13725490196078433" d="M 153.5 108 L 154.5 110 L 153.5 108 Z " /><path fill="rgb(173,201,247)" stroke="rgb(173,201,247)" stroke-width="1" opacity="0.13725490196078433" d="M 320.5 109 L 321 111 L 318 112.5 Q 318.8 114.8 316.5 114 L 299 130.5 L 320.5 109 Z " /><path fill="rgb(173,201,247)" stroke="rgb(173,201,247)" stroke-width="1" opacity="0.13725490196078433" d="M 155.5 111 L 163 117.5 L 160.5 116 Q 158.3 116.8 159 114.5 L 155.5 111 Z " /><path fill="rgb(173,201,247)" stroke="rgb(173,201,247)" stroke-width="1" opacity="0.13725490196078433" d="M 164.5 119 L 175.5 131 L 169 126 L 167.5 123 Q 165.3 123.8 166 121.5 L 164.5 119 Z " /><path fill="rgb(173,201,247)" stroke="rgb(173,201,247)" stroke-width="1" opacity="0.13725490196078433" d="M 191.5 121 L 196 124.5 L 194.5 125 L 191.5 121 Z " /><path fill="rgb(173,201,247)" stroke="rgb(173,201,247)" stroke-width="1" opacity="0.13725490196078433" d="M 198.5 127 L 199.5 129 L 198.5 127 Z " /><path fill="rgb(173,201,247)" stroke="rgb(173,201,247)" stroke-width="1" opacity="0.13725490196078433" d="M 202.5 131 L 212.5 142 L 202.5 131 Z " /><path fill="rgb(173,201,247)" stroke="rgb(173,201,247)" stroke-width="1" opacity="0.13725490196078433" d="M 177.5 132 L 203.5 158 L 205 158 Q 203.9 160.7 206.5 160 L 206.5 161 L 177.5 132 Z " /><path fill="rgb(173,201,247)" stroke="rgb(173,201,247)" stroke-width="1" opacity="0.13725490196078433" d="M 297.5 132 L 294.5 136 L 293 135.5 L 297.5 132 Z " /><path fill="rgb(173,201,247)" stroke="rgb(173,201,247)" stroke-width="1" opacity="0.13725490196078433" d="M 290.5 138 L 286.5 143 L 290.5 138 Z " /><path fill="rgb(173,201,247)" stroke="rgb(173,201,247)" stroke-width="1" opacity="0.13725490196078433" d="M 313.5 138 L 314 139.5 L 311 141.5 L 313.5 138 Z " /><path fill="rgb(173,201,247)" stroke="rgb(173,201,247)" stroke-width="1" opacity="0.13725490196078433" d="M 308.5 143 L 310 143.5 L 302 150.5 L 306 145.5 L 308.5 143 Z " /><path fill="rgb(173,201,247)" stroke="rgb(173,201,247)" stroke-width="1" opacity="0.13725490196078433" d="M 216.5 144 L 217.5 146 Q 214.7 146.7 216.5 144 Z " /><path fill="rgb(173,201,247)" stroke="rgb(173,201,247)" stroke-width="1" opacity="0.13725490196078433" d="M 284.5 144 L 270.5 159 L 263.5 165 L 260 170 L 258 170 Q 259.1 172.7 256.5 172 L 250 177.5 L 284.5 144 Z " /><path fill="rgb(173,201,247)" stroke="rgb(173,201,247)" stroke-width="1" opacity="0.13725490196078433" d="M 218.5 147 L 221 148.5 Q 220.3 150.8 222.5 150 L 248.5 177 L 230.5 159 L 229 159 L 229 157 Q 226.3 158.1 227 155.5 L 220 149.5 Q 220.8 147.3 218.5 148 L 218.5 147 Z " /><path fill="rgb(173,201,247)" stroke="rgb(173,201,247)" stroke-width="1" opacity="0.13725490196078433" d="M 298.5 153 L 299 155 Q 296.3 153.9 297 156.5 L 293 159 Q 294.1 161.7 291.5 161 L 298.5 153 Z " /><path fill="rgb(173,201,247)" stroke="rgb(173,201,247)" stroke-width="1" opacity="0.13725490196078433" d="M 207.5 162 L 208.5 164 L 207.5 162 Z " /><path fill="rgb(173,201,247)" stroke="rgb(173,201,247)" stroke-width="1" opacity="0.13725490196078433" d="M 289.5 162 L 290 163.5 L 287.5 165 L 287.5 164 Q 290 164.7 289.5 162 Z " /><path fill="rgb(173,201,247)" stroke="rgb(173,201,247)" stroke-width="1" opacity="0.13725490196078433" d="M 210.5 165 L 215 168 Q 213.9 170.7 216.5 170 L 217.5 172 L 210.5 165 Z " /><path fill="rgb(173,201,247)" stroke="rgb(173,201,247)" stroke-width="1" opacity="0.13725490196078433" d="M 285.5 166 L 283 169.5 Q 283.8 171.8 281.5 171 L 278 173.5 L 285.5 166 Z " /><path fill="rgb(173,201,247)" stroke="rgb(173,201,247)" stroke-width="1" opacity="0.13725490196078433" d="M 218.5 173 L 219.5 175 L 218.5 173 Z " /><path fill="rgb(173,201,247)" stroke="rgb(173,201,247)" stroke-width="1" opacity="0.13725490196078433" d="M 276.5 175 L 271 181.5 L 276 187.5 L 273.5 186 Q 271.3 186.8 272 184.5 L 270 181.5 L 276.5 175 Z " /><path fill="rgb(173,201,247)" stroke="rgb(173,201,247)" stroke-width="1" opacity="0.13725490196078433" d="M 222.5 177 Q 224.8 176.3 224 178.5 L 222.5 177 Z " /><path fill="rgb(173,201,247)" stroke="rgb(173,201,247)" stroke-width="1" opacity="0.13725490196078433" d="M 108.5 178 L 110.5 181 L 108.5 178 Z " /><path fill="rgb(173,201,247)" stroke="rgb(173,201,247)" stroke-width="1" opacity="0.13725490196078433" d="M 227.5 181 L 236.5 191 L 231 187 L 231 185 Q 228.3 186.1 229 183.5 L 227.5 181 Z " /><path fill="rgb(173,201,247)" stroke="rgb(173,201,247)" stroke-width="1" opacity="0.13725490196078433" d="M 112.5 182 L 116.5 187 L 112.5 182 Z " /><path fill="rgb(173,201,247)" stroke="rgb(173,201,247)" stroke-width="1" opacity="0.13725490196078433" d="M 277.5 189 L 286.5 199 L 277.5 189 Z " /><path fill="rgb(173,201,247)" stroke="rgb(173,201,247)" stroke-width="1" opacity="0.13725490196078433" d="M 122.5 192 L 123.5 194 L 122.5 192 Z " /><path fill="rgb(173,201,247)" stroke="rgb(173,201,247)" stroke-width="1" opacity="0.13725490196078433" d="M 239.5 194 L 250 203.5 L 240.5 195 L 239.5 194 Z " /><path fill="rgb(173,201,247)" stroke="rgb(173,201,247)" stroke-width="1" opacity="0.13725490196078433" d="M 128.5 197 L 129.5 199 L 128.5 197 Z " /><path fill="rgb(173,201,247)" stroke="rgb(173,201,247)" stroke-width="1" opacity="0.13725490196078433" d="M 131.5 200 L 135 204.5 L 133 203.5 L 131.5 200 Z " /><path fill="rgb(173,201,247)" stroke="rgb(173,201,247)" stroke-width="1" opacity="0.13725490196078433" d="M 288.5 200 L 309.5 222 L 288.5 200 Z " /><path fill="rgb(173,201,247)" stroke="rgb(173,201,247)" stroke-width="1" opacity="0.13725490196078433" d="M 136.5 205 L 139.5 209 L 136 207 L 136.5 205 Z " /><path fill="rgb(173,201,247)" stroke="rgb(173,201,247)" stroke-width="1" opacity="0.13725490196078433" d="M 253.5 207 L 288.5 242 L 290 242 L 297 250.5 L 270 276.5 L 296 250.5 L 253.5 207 Z " /><path fill="rgb(173,201,247)" stroke="rgb(173,201,247)" stroke-width="1" opacity="0.13725490196078433" d="M 145.5 214 L 173.5 243 L 145.5 214 Z " /><path fill="rgb(173,201,247)" stroke="rgb(173,201,247)" stroke-width="1" opacity="0.13725490196078433" d="M 313.5 225 L 329 239.5 Q 328.3 241.8 330.5 241 L 331.5 243 L 328 240.5 Q 328.8 238.3 326.5 239 L 313.5 225 Z " /><path fill="rgb(173,201,247)" stroke="rgb(173,201,247)" stroke-width="1" opacity="0.13725490196078433" d="M 175.5 244 L 182 249 L 182 250.5 L 145.5 287 L 145 285 L 147 285 L 147 283 L 149 283 L 149 281 L 151 281 Q 149.9 278.3 152.5 279 L 154 276 L 158 273.5 L 158 272 L 160 272 L 160 270 L 162 270 Q 160.9 267.3 163.5 268 L 171 259 L 172.5 259 L 181 250.5 L 175.5 244 Z " /><path fill="rgb(173,201,247)" stroke="rgb(173,201,247)" stroke-width="1" opacity="0.13725490196078433" d="M 334.5 246 L 339 249.5 L 282.5 307 L 280 308.5 L 278.5 311 L 278 309.5 L 283 306 L 283 304 L 285 304 L 285 302 L 287 302 L 287 300 L 289 300 L 289 298 L 291 298 L 291 296 L 293 296 Q 291.9 293.3 294.5 294 L 296 291 L 298 291 L 298 289 L 300 289 Q 298.9 286.3 301.5 287 L 304 283 L 307 281.5 Q 306.3 279.3 308.5 280 L 328 260.5 L 328 259 L 329.5 259 L 338 250.5 L 334.5 246 Z " /><path fill="rgb(173,201,247)" stroke="rgb(173,201,247)" stroke-width="1" opacity="0.13725490196078433" d="M 263.5 282 L 264 283.5 L 262 284.5 L 263.5 282 Z " /><path fill="rgb(173,201,247)" stroke="rgb(173,201,247)" stroke-width="1" opacity="0.13725490196078433" d="M 260.5 285 L 261 286.5 L 259 287.5 L 260.5 285 Z " /><path fill="rgb(173,201,247)" stroke="rgb(173,201,247)" stroke-width="1" opacity="0.13725490196078433" d="M 138.5 292 L 140 292.5 L 137 294.5 Q 137.8 296.8 135.5 296 L 132.5 300 L 132 298.5 L 138.5 292 Z " /><path fill="rgb(173,201,247)" stroke="rgb(173,201,247)" stroke-width="1" opacity="0.13725490196078433" d="M 252.5 293 L 253 294.5 L 249 297 L 246.5 301 L 243.5 303 L 234 312.5 L 234 314 L 232.5 314 L 223.5 323 L 246.5 299 Q 248.8 299.8 248 297.5 L 251 296 L 252.5 293 Z " /><path fill="rgb(173,201,247)" stroke="rgb(173,201,247)" stroke-width="1" opacity="0.13725490196078433" d="M 130.5 300 L 119.5 312 L 130.5 300 Z " /><path fill="rgb(173,201,247)" stroke="rgb(173,201,247)" stroke-width="1" opacity="0.13725490196078433" d="M 276.5 311 L 277 312.5 L 273 315 L 270.5 319 L 270 317 Q 272.7 318.1 272 315.5 L 276 313 L 276.5 311 Z " /><path fill="rgb(173,201,247)" stroke="rgb(173,201,247)" stroke-width="1" opacity="0.13725490196078433" d="M 117.5 313 L 108.5 323 L 117.5 313 Z " /><path fill="rgb(173,201,247)" stroke="rgb(173,201,247)" stroke-width="1" opacity="0.13725490196078433" d="M 271.5 320 L 272.5 322 L 271.5 320 Z " /><path fill="rgb(173,201,247)" stroke="rgb(173,201,247)" stroke-width="1" opacity="0.13725490196078433" d="M 274.5 322 L 275.5 324 L 274.5 322 Z " /><path fill="rgb(173,201,247)" stroke="rgb(173,201,247)" stroke-width="1" opacity="0.13725490196078433" d="M 248.5 323 L 256 328 L 256 330 L 258 330 L 258 332 Q 260.7 330.9 260 333.5 L 263 335 L 265 338.5 L 249.5 324 L 240.5 332 L 240 330 L 242 330 Q 240.9 327.3 243.5 328 L 248.5 323 Z " /><path fill="rgb(173,201,247)" stroke="rgb(173,201,247)" stroke-width="1" opacity="0.13725490196078433" d="M 221.5 324 L 199.5 347 L 221.5 324 Z " /><path fill="rgb(173,201,247)" stroke="rgb(173,201,247)" stroke-width="1" opacity="0.13725490196078433" d="M 277.5 325 L 278.5 327 L 277.5 325 Z " /><path fill="rgb(173,201,247)" stroke="rgb(173,201,247)" stroke-width="1" opacity="0.13725490196078433" d="M 279.5 328 L 283 330.5 L 284 332.5 L 282 331.5 Q 282.8 329.3 280.5 330 L 279.5 328 Z " /><path fill="rgb(173,201,247)" stroke="rgb(173,201,247)" stroke-width="1" opacity="0.13725490196078433" d="M 238.5 332 L 239 333.5 L 231 340.5 L 231 339 L 233 339 L 233 337 L 235 337 Q 233.9 334.3 236.5 335 L 238.5 332 Z " /><path fill="rgb(173,201,247)" stroke="rgb(173,201,247)" stroke-width="1" opacity="0.13725490196078433" d="M 285.5 333 L 286.5 335 L 285.5 333 Z " /><path fill="rgb(173,201,247)" stroke="rgb(173,201,247)" stroke-width="1" opacity="0.13725490196078433" d="M 290.5 338 L 332.5 381 L 290.5 338 Z " /><path fill="rgb(173,201,247)" stroke="rgb(173,201,247)" stroke-width="1" opacity="0.13725490196078433" d="M 266.5 339 L 267 341 L 269 341.5 L 267.5 342 L 266.5 339 Z " /><path fill="rgb(173,201,247)" stroke="rgb(173,201,247)" stroke-width="1" opacity="0.13725490196078433" d="M 229.5 341 L 211.5 360 L 213 357.5 Q 212.3 355.3 214.5 356 L 229.5 341 Z " /><path fill="rgb(173,201,247)" stroke="rgb(173,201,247)" stroke-width="1" opacity="0.13725490196078433" d="M 272.5 345 L 288.5 362 L 272.5 345 Z " /><path fill="rgb(173,201,247)" stroke="rgb(173,201,247)" stroke-width="1" opacity="0.13725490196078433" d="M 195.5 350 L 184.5 362 L 195.5 350 Z " /><path fill="rgb(173,201,247)" stroke="rgb(173,201,247)" stroke-width="1" opacity="0.13725490196078433" d="M 207.5 362 L 209 362.5 L 179.5 390 L 179.5 389 L 182 387.5 L 182 386 L 184 386 L 184 384 L 186 384 Q 184.9 381.3 187.5 382 L 207.5 362 Z " /><path fill="rgb(173,201,247)" stroke="rgb(173,201,247)" stroke-width="1" opacity="0.13725490196078433" d="M 290.5 362 L 312.5 384 L 314 384 L 314 386 Q 316.7 384.9 316 387.5 L 290.5 362 Z " /><path fill="rgb(173,201,247)" stroke="rgb(173,201,247)" stroke-width="1" opacity="0.13725490196078433" d="M 180.5 365 L 171.5 375 L 171 373 L 175 370.5 L 175 369 L 177 369 Q 175.9 366.3 178.5 367 L 180.5 365 Z " /><path fill="rgb(173,201,247)" stroke="rgb(173,201,247)" stroke-width="1" opacity="0.13725490196078433" d="M 167.5 377 L 168 379 L 166 378.5 L 167.5 377 Z " /><path fill="rgb(173,201,247)" stroke="rgb(173,201,247)" stroke-width="1" opacity="0.13725490196078433" d="M 163.5 381 L 162 383.5 Q 162.8 385.8 160.5 385 L 159 388 L 151 394.5 L 149 397.5 L 146 399 Q 147.1 401.7 144.5 401 L 119 425.5 L 163.5 381 Z " /><path fill="rgb(173,201,247)" stroke="rgb(173,201,247)" stroke-width="1" opacity="0.13725490196078433" d="M 334.5 382 L 338 384 L 339.5 387 L 342 388.5 L 341.5 390 L 341 388 L 339.5 388 L 334.5 382 Z " /><path fill="rgb(173,201,247)" stroke="rgb(173,201,247)" stroke-width="1" opacity="0.13725490196078433" d="M 317.5 388 L 319 390.5 L 317 389.5 L 317.5 388 Z " /><path fill="rgb(173,201,247)" stroke="rgb(173,201,247)" stroke-width="1" opacity="0.13725490196078433" d="M 177.5 391 L 174 395.5 Q 174.8 397.8 172.5 397 L 160.5 409 L 159 409 Q 160.1 411.7 157.5 411 L 159.5 408 L 162 406.5 Q 161.3 404.3 163.5 405 L 177.5 391 Z " /><path fill="rgb(173,201,247)" stroke="rgb(173,201,247)" stroke-width="1" opacity="0.13725490196078433" d="M 320.5 391 L 321 393 L 323 393 Q 321.9 395.7 324.5 395 L 324.5 396 L 320 392.5 L 320.5 391 Z " /><path fill="rgb(173,201,247)" stroke="rgb(173,201,247)" stroke-width="1" opacity="0.13725490196078433" d="M 347.5 395 Q 349.8 394.3 349 396.5 L 353 399.5 L 355 402.5 L 347.5 395 Z " /><path fill="rgb(173,201,247)" stroke="rgb(173,201,247)" stroke-width="1" opacity="0.13725490196078433" d="M 326.5 397 L 339.5 411 L 326.5 397 Z " /><path fill="rgb(173,201,247)" stroke="rgb(173,201,247)" stroke-width="1" opacity="0.13725490196078433" d="M 356.5 403 L 359.5 407 Q 356.9 407.7 358 405 L 356 405 L 356.5 403 Z " /><path fill="rgb(173,201,247)" stroke="rgb(173,201,247)" stroke-width="1" opacity="0.13725490196078433" d="M 360.5 408 L 364 410.5 Q 363.3 412.8 365.5 412 L 389.5 437 L 384 433 L 377.5 425 Q 375.3 425.8 376 423.5 L 373 422 L 370.5 418 L 369 418 L 369 416 Q 366.3 417.1 367 414.5 L 362 410.5 Q 362.8 408.3 360.5 409 L 360.5 408 Z " /><path fill="rgb(173,201,247)" stroke="rgb(173,201,247)" stroke-width="1" opacity="0.13725490196078433" d="M 342.5 412 L 345 415.5 L 342 413.5 L 342.5 412 Z " /><path fill="rgb(173,201,247)" stroke="rgb(173,201,247)" stroke-width="1" opacity="0.13725490196078433" d="M 149.5 418 L 133 435.5 L 132.5 437 L 132 435.5 L 134 432 L 135.5 432 L 149.5 418 Z " /><path fill="rgb(173,201,247)" stroke="rgb(173,201,247)" stroke-width="1" opacity="0.13725490196078433" d="M 350.5 420 L 366 436.5 L 365 436.5 L 350.5 420 Z " /><path fill="rgb(173,201,247)" stroke="rgb(173,201,247)" stroke-width="1" opacity="0.13725490196078433" d="M 117.5 427 L 108.5 437 L 117.5 427 Z " /><path fill="rgb(69,110,200)" stroke="rgb(69,110,200)" stroke-width="1" opacity="0.596078431372549" d="M 365.5 64 L 366 65.5 L 348 82.5 L 365.5 64 Z " /><path fill="rgb(69,110,200)" stroke="rgb(69,110,200)" stroke-width="1" opacity="0.596078431372549" d="M 108.5 65 L 121.5 79 L 108.5 65 Z " /><path fill="rgb(69,110,200)" stroke="rgb(69,110,200)" stroke-width="1" opacity="0.596078431372549" d="M 134.5 65 L 138 67 L 140.5 71 L 165 93.5 L 163.5 94 L 134.5 65 Z " /><path fill="rgb(69,110,200)" stroke="rgb(69,110,200)" stroke-width="1" opacity="0.596078431372549" d="M 383.5 70 L 327.5 127 L 383.5 70 Z " /><path fill="rgb(69,110,200)" stroke="rgb(69,110,200)" stroke-width="1" opacity="0.596078431372549" d="M 123.5 80 L 128.5 86 L 123.5 80 Z " /><path fill="rgb(69,110,200)" stroke="rgb(69,110,200)" stroke-width="1" opacity="0.596078431372549" d="M 345 84 L 347 84.5 L 341 89.5 Q 341.8 91.8 339.5 91 L 327 102.5 L 343.5 86 L 345 86 L 345 84 Z " /><path fill="rgb(69,110,200)" stroke="rgb(69,110,200)" stroke-width="1" opacity="0.596078431372549" d="M 132.5 89 L 136.5 94 L 132.5 89 Z " /><path fill="rgb(69,110,200)" stroke="rgb(69,110,200)" stroke-width="1" opacity="0.596078431372549" d="M 141.5 98 L 145 100.5 L 142.5 99 L 141.5 98 Z " /><path fill="rgb(69,110,200)" stroke="rgb(69,110,200)" stroke-width="1" opacity="0.596078431372549" d="M 170.5 99 L 196 123.5 L 194.5 124 L 170.5 99 Z " /><path fill="rgb(69,110,200)" stroke="rgb(69,110,200)" stroke-width="1" opacity="0.596078431372549" d="M 146.5 102 L 147.5 104 L 146.5 102 Z " /><path fill="rgb(69,110,200)" stroke="rgb(69,110,200)" stroke-width="1" opacity="0.596078431372549" d="M 325.5 104 L 321.5 109 L 325.5 104 Z " /><path fill="rgb(69,110,200)" stroke="rgb(69,110,200)" stroke-width="1" opacity="0.596078431372549" d="M 149.5 105 L 154.5 111 L 149.5 105 Z " /><path fill="rgb(69,110,200)" stroke="rgb(69,110,200)" stroke-width="1" opacity="0.596078431372549" d="M 157.5 113 L 158.5 115 L 157.5 113 Z " /><path fill="rgb(69,110,200)" stroke="rgb(69,110,200)" stroke-width="1" opacity="0.596078431372549" d="M 315.5 113 L 294.5 135 L 315.5 113 Z " /><path fill="rgb(69,110,200)" stroke="rgb(69,110,200)" stroke-width="1" opacity="0.596078431372549" d="M 160.5 116 L 165.5 122 L 160.5 116 Z " /><path fill="rgb(69,110,200)" stroke="rgb(69,110,200)" stroke-width="1" opacity="0.596078431372549" d="M 167.5 123 L 168.5 125 L 167.5 123 Z " /><path fill="rgb(69,110,200)" stroke="rgb(69,110,200)" stroke-width="1" opacity="0.596078431372549" d="M 196.5 125 L 197.5 127 L 196.5 125 Z " /><path fill="rgb(69,110,200)" stroke="rgb(69,110,200)" stroke-width="1" opacity="0.596078431372549" d="M 170.5 126 L 205.5 161 L 207 161 L 208.5 164 Q 210.8 163.3 210 165.5 L 170.5 126 Z " /><path fill="rgb(69,110,200)" stroke="rgb(69,110,200)" stroke-width="1" opacity="0.596078431372549" d="M 325.5 128 L 318.5 136 L 325.5 128 Z " /><path fill="rgb(69,110,200)" stroke="rgb(69,110,200)" stroke-width="1" opacity="0.596078431372549" d="M 200.5 129 L 216 143.5 L 202.5 131 L 200.5 129 Z " /><path fill="rgb(69,110,200)" stroke="rgb(69,110,200)" stroke-width="1" opacity="0.596078431372549" d="M 292.5 136 L 291.5 138 L 292.5 136 Z " /><path fill="rgb(69,110,200)" stroke="rgb(69,110,200)" stroke-width="1" opacity="0.596078431372549" d="M 287.5 140 L 286 142.5 Q 286.8 144.8 284.5 144 L 270 157.5 L 287.5 140 Z " /><path fill="rgb(69,110,200)" stroke="rgb(69,110,200)" stroke-width="1" opacity="0.596078431372549" d="M 223.5 150 L 224.5 152 L 223.5 150 Z " /><path fill="rgb(69,110,200)" stroke="rgb(69,110,200)" stroke-width="1" opacity="0.596078431372549" d="M 226.5 153 L 250.5 176 L 259 168.5 L 249.5 177 L 226.5 153 Z " /><path fill="rgb(69,110,200)" stroke="rgb(69,110,200)" stroke-width="1" opacity="0.596078431372549" d="M 291.5 161 L 290.5 163 L 291.5 161 Z " /><path fill="rgb(69,110,200)" stroke="rgb(69,110,200)" stroke-width="1" opacity="0.596078431372549" d="M 287.5 165 L 283.5 170 L 287.5 165 Z " /><path fill="rgb(69,110,200)" stroke="rgb(69,110,200)" stroke-width="1" opacity="0.596078431372549" d="M 281.5 171 L 272 181.5 L 273 183.5 L 271 182.5 L 281.5 171 Z " /><path fill="rgb(69,110,200)" stroke="rgb(69,110,200)" stroke-width="1" opacity="0.596078431372549" d="M 217.5 172 L 219 174.5 L 217 173.5 L 217.5 172 Z " /><path fill="rgb(69,110,200)" stroke="rgb(69,110,200)" stroke-width="1" opacity="0.596078431372549" d="M 220.5 175 L 221.5 177 L 220.5 175 Z " /><path fill="rgb(69,110,200)" stroke="rgb(69,110,200)" stroke-width="1" opacity="0.596078431372549" d="M 108.5 176 L 127.5 196 L 131 198.5 L 130.5 200 L 128.5 197 L 108 177.5 L 108.5 176 Z " /><path fill="rgb(69,110,200)" stroke="rgb(69,110,200)" stroke-width="1" opacity="0.596078431372549" d="M 224.5 179 L 228.5 184 L 224.5 179 Z " /><path fill="rgb(69,110,200)" stroke="rgb(69,110,200)" stroke-width="1" opacity="0.596078431372549" d="M 274.5 185 L 279.5 191 L 276 189 L 274.5 185 Z " /><path fill="rgb(69,110,200)" stroke="rgb(69,110,200)" stroke-width="1" opacity="0.596078431372549" d="M 232.5 187 L 238.5 194 L 232.5 187 Z " /><path fill="rgb(69,110,200)" stroke="rgb(69,110,200)" stroke-width="1" opacity="0.596078431372549" d="M 281.5 192 L 326.5 238 L 288.5 200 L 287 200 L 281.5 192 Z " /><path fill="rgb(69,110,200)" stroke="rgb(69,110,200)" stroke-width="1" opacity="0.596078431372549" d="M 240.5 195 L 287.5 243 L 240.5 195 Z " /><path fill="rgb(69,110,200)" stroke="rgb(69,110,200)" stroke-width="1" opacity="0.596078431372549" d="M 132.5 200 L 137.5 206 L 134 203.5 L 132.5 200 Z " /><path fill="rgb(69,110,200)" stroke="rgb(69,110,200)" stroke-width="1" opacity="0.596078431372549" d="M 139.5 207 L 180.5 249 L 143 212.5 Q 143.8 210.3 141.5 211 L 139.5 207 Z " /><path fill="rgb(69,110,200)" stroke="rgb(69,110,200)" stroke-width="1" opacity="0.596078431372549" d="M 332.5 243 L 336.5 248 L 332.5 243 Z " /><path fill="rgb(69,110,200)" stroke="rgb(69,110,200)" stroke-width="1" opacity="0.596078431372549" d="M 289.5 244 L 296 250.5 L 264.5 282 L 295 250.5 L 289.5 244 Z " /><path fill="rgb(69,110,200)" stroke="rgb(69,110,200)" stroke-width="1" opacity="0.596078431372549" d="M 339.5 250 L 310.5 280 L 339.5 250 Z " /><path fill="rgb(69,110,200)" stroke="rgb(69,110,200)" stroke-width="1" opacity="0.596078431372549" d="M 181.5 251 L 173.5 260 L 181.5 251 Z " /><path fill="rgb(69,110,200)" stroke="rgb(69,110,200)" stroke-width="1" opacity="0.596078431372549" d="M 171.5 261 L 170.5 263 L 171.5 261 Z " /><path fill="rgb(69,110,200)" stroke="rgb(69,110,200)" stroke-width="1" opacity="0.596078431372549" d="M 168.5 264 L 167.5 266 L 168.5 264 Z " /><path fill="rgb(69,110,200)" stroke="rgb(69,110,200)" stroke-width="1" opacity="0.596078431372549" d="M 165.5 267 L 163.5 270 L 165.5 267 Z " /><path fill="rgb(69,110,200)" stroke="rgb(69,110,200)" stroke-width="1" opacity="0.596078431372549" d="M 161.5 271 L 160.5 273 L 161.5 271 Z " /><path fill="rgb(69,110,200)" stroke="rgb(69,110,200)" stroke-width="1" opacity="0.596078431372549" d="M 158.5 274 L 157.5 276 L 158.5 274 Z " /><path fill="rgb(69,110,200)" stroke="rgb(69,110,200)" stroke-width="1" opacity="0.596078431372549" d="M 154.5 278 L 153.5 280 L 154.5 278 Z " /><path fill="rgb(69,110,200)" stroke="rgb(69,110,200)" stroke-width="1" opacity="0.596078431372549" d="M 307.5 282 L 306.5 284 L 307.5 282 Z " /><path fill="rgb(69,110,200)" stroke="rgb(69,110,200)" stroke-width="1" opacity="0.596078431372549" d="M 262.5 283 L 261.5 285 L 260 284.5 L 262.5 283 Z " /><path fill="rgb(69,110,200)" stroke="rgb(69,110,200)" stroke-width="1" opacity="0.596078431372549" d="M 259.5 286 L 253.5 293 L 251.5 294 L 252.5 292 L 259.5 286 Z " /><path fill="rgb(69,110,200)" stroke="rgb(69,110,200)" stroke-width="1" opacity="0.596078431372549" d="M 142.5 289 L 140.5 292 L 142.5 289 Z " /><path fill="rgb(69,110,200)" stroke="rgb(69,110,200)" stroke-width="1" opacity="0.596078431372549" d="M 300.5 289 L 299.5 291 L 300.5 289 Z " /><path fill="rgb(69,110,200)" stroke="rgb(69,110,200)" stroke-width="1" opacity="0.596078431372549" d="M 138.5 293 L 137.5 295 L 138.5 293 Z " /><path fill="rgb(69,110,200)" stroke="rgb(69,110,200)" stroke-width="1" opacity="0.596078431372549" d="M 135.5 296 L 134.5 298 L 135.5 296 Z " /><path fill="rgb(69,110,200)" stroke="rgb(69,110,200)" stroke-width="1" opacity="0.596078431372549" d="M 131.5 300 L 108.5 324 L 131.5 300 Z " /><path fill="rgb(69,110,200)" stroke="rgb(69,110,200)" stroke-width="1" opacity="0.596078431372549" d="M 244.5 300 L 242.5 303 L 244.5 300 Z " /><path fill="rgb(69,110,200)" stroke="rgb(69,110,200)" stroke-width="1" opacity="0.596078431372549" d="M 240.5 304 L 236.5 309 L 240.5 304 Z " /><path fill="rgb(69,110,200)" stroke="rgb(69,110,200)" stroke-width="1" opacity="0.596078431372549" d="M 281.5 307 L 280.5 309 L 281.5 307 Z " /><path fill="rgb(69,110,200)" stroke="rgb(69,110,200)" stroke-width="1" opacity="0.596078431372549" d="M 234.5 310 L 233.5 312 L 234.5 310 Z " /><path fill="rgb(69,110,200)" stroke="rgb(69,110,200)" stroke-width="1" opacity="0.596078431372549" d="M 231.5 313 L 178.5 367 L 231.5 313 Z " /><path fill="rgb(69,110,200)" stroke="rgb(69,110,200)" stroke-width="1" opacity="0.596078431372549" d="M 271.5 318 L 273.5 321 L 276 322.5 L 274.5 322 L 271 319.5 L 271.5 318 Z " /><path fill="rgb(69,110,200)" stroke="rgb(69,110,200)" stroke-width="1" opacity="0.596078431372549" d="M 248.5 324 L 261 335.5 L 249.5 325 L 247.5 326 L 248.5 324 Z " /><path fill="rgb(69,110,200)" stroke="rgb(69,110,200)" stroke-width="1" opacity="0.596078431372549" d="M 276.5 324 L 280 326.5 L 281 328.5 L 279 327.5 L 277.5 325 L 276.5 324 Z " /><path fill="rgb(69,110,200)" stroke="rgb(69,110,200)" stroke-width="1" opacity="0.596078431372549" d="M 245.5 327 L 241.5 332 L 245.5 327 Z " /><path fill="rgb(69,110,200)" stroke="rgb(69,110,200)" stroke-width="1" opacity="0.596078431372549" d="M 282.5 329 L 284 332 L 286 332.5 L 284.5 333 L 282.5 329 Z " /><path fill="rgb(69,110,200)" stroke="rgb(69,110,200)" stroke-width="1" opacity="0.596078431372549" d="M 287.5 334 L 290.5 338 Q 287.9 338.7 289 336 L 287 336 L 287.5 334 Z " /><path fill="rgb(69,110,200)" stroke="rgb(69,110,200)" stroke-width="1" opacity="0.596078431372549" d="M 262.5 337 L 263.5 339 L 262.5 337 Z " /><path fill="rgb(69,110,200)" stroke="rgb(69,110,200)" stroke-width="1" opacity="0.596078431372549" d="M 230.5 341 L 215.5 357 L 230.5 341 Z " /><path fill="rgb(69,110,200)" stroke="rgb(69,110,200)" stroke-width="1" opacity="0.596078431372549" d="M 294.5 341 L 336.5 384 L 294.5 341 Z " /><path fill="rgb(69,110,200)" stroke="rgb(69,110,200)" stroke-width="1" opacity="0.596078431372549" d="M 268.5 342 L 269.5 344 L 268.5 342 Z " /><path fill="rgb(69,110,200)" stroke="rgb(69,110,200)" stroke-width="1" opacity="0.596078431372549" d="M 271.5 345 L 285.5 360 L 271.5 345 Z " /><path fill="rgb(69,110,200)" stroke="rgb(69,110,200)" stroke-width="1" opacity="0.596078431372549" d="M 213.5 358 L 212.5 360 L 213.5 358 Z " /><path fill="rgb(69,110,200)" stroke="rgb(69,110,200)" stroke-width="1" opacity="0.596078431372549" d="M 210.5 360 L 211 362 L 209 361.5 L 210.5 360 Z " /><path fill="rgb(69,110,200)" stroke="rgb(69,110,200)" stroke-width="1" opacity="0.596078431372549" d="M 289.5 362 L 311.5 385 L 289.5 362 Z " /><path fill="rgb(69,110,200)" stroke="rgb(69,110,200)" stroke-width="1" opacity="0.596078431372549" d="M 207.5 363 L 184.5 387 L 207.5 363 Z " /><path fill="rgb(69,110,200)" stroke="rgb(69,110,200)" stroke-width="1" opacity="0.596078431372549" d="M 174.5 370 L 172.5 373 L 174.5 370 Z " /><path fill="rgb(69,110,200)" stroke="rgb(69,110,200)" stroke-width="1" opacity="0.596078431372549" d="M 165.5 379 L 164.5 381 L 165.5 379 Z " /><path fill="rgb(69,110,200)" stroke="rgb(69,110,200)" stroke-width="1" opacity="0.596078431372549" d="M 159.5 384 L 155.5 389 L 159.5 384 Z " /><path fill="rgb(69,110,200)" stroke="rgb(69,110,200)" stroke-width="1" opacity="0.596078431372549" d="M 338.5 385 L 339.5 387 L 338.5 385 Z " /><path fill="rgb(69,110,200)" stroke="rgb(69,110,200)" stroke-width="1" opacity="0.596078431372549" d="M 313.5 386 L 314.5 388 L 313.5 386 Z " /><path fill="rgb(69,110,200)" stroke="rgb(69,110,200)" stroke-width="1" opacity="0.596078431372549" d="M 342.5 389 L 347.5 395 L 342.5 389 Z " /><path fill="rgb(69,110,200)" stroke="rgb(69,110,200)" stroke-width="1" opacity="0.596078431372549" d="M 179.5 390 L 174.5 396 L 179.5 390 Z " /><path fill="rgb(69,110,200)" stroke="rgb(69,110,200)" stroke-width="1" opacity="0.596078431372549" d="M 149.5 394 L 108.5 436 L 149.5 394 Z " /><path fill="rgb(69,110,200)" stroke="rgb(69,110,200)" stroke-width="1" opacity="0.596078431372549" d="M 324.5 396 L 342 412.5 L 340.5 412 L 324.5 396 Z " /><path fill="rgb(69,110,200)" stroke="rgb(69,110,200)" stroke-width="1" opacity="0.596078431372549" d="M 349.5 396 L 350.5 398 L 349.5 396 Z " /><path fill="rgb(69,110,200)" stroke="rgb(69,110,200)" stroke-width="1" opacity="0.596078431372549" d="M 172.5 397 L 160.5 410 L 159 409.5 L 172.5 397 Z " /><path fill="rgb(69,110,200)" stroke="rgb(69,110,200)" stroke-width="1" opacity="0.596078431372549" d="M 157.5 411 L 159 411.5 L 153 416.5 Q 153.8 418.8 151.5 418 L 133.5 437 L 133 435.5 L 157.5 411 Z " /><path fill="rgb(69,110,200)" stroke="rgb(69,110,200)" stroke-width="1" opacity="0.596078431372549" d="M 342.5 414 L 343.5 416 L 342.5 414 Z " /><path fill="rgb(69,110,200)" stroke="rgb(69,110,200)" stroke-width="1" opacity="0.596078431372549" d="M 345.5 416 L 365 435.5 L 365 437 L 363 436.5 L 364 435.5 L 346.5 418 Q 343.7 418.7 345.5 416 Z " /><path fill="rgb(69,110,200)" stroke="rgb(69,110,200)" stroke-width="1" opacity="0.596078431372549" d="M 378.5 424 L 384.5 431 L 378.5 424 Z " /><path fill="rgb(69,110,200)" stroke="rgb(69,110,200)" stroke-width="1" opacity="0.596078431372549" d="M 386.5 432 L 389.5 436 L 386.5 432 Z " /><path fill="rgb(69,110,200)" stroke="rgb(69,110,200)" stroke-width="1" opacity="0.596078431372549" d="M 136.5 436 L 362 436.5 L 136.5 437 L 136.5 436 Z " /></svg>